<svg width="44" height="44" fill="none" xmlns="http://www.w3.org/2000/svg"><path fill-rule="evenodd" clip-rule="evenodd" d="M7.716 8a.9.9 0 00-.896.906v1.525h31.36V8.906A.9.9 0 0037.284 8H7.716zm-1.8 3.4c-.556 0-1.006.46-1.006 1.029v1.564h35.18v-1.564c0-.569-.45-1.03-1.005-1.03H5.915zm-1.802 3.693C3.5 15.093 3 15.6 3 16.227v18.638C3 35.492 3.499 36 4.114 36h36.772C41.5 36 42 35.492 42 34.865V16.227c0-.626-.499-1.134-1.114-1.134H4.114zm24.569 10.174c0 3.35-2.768 6.066-6.183 6.066s-6.183-2.716-6.183-6.066c0-3.35 2.768-6.067 6.183-6.067s6.183 2.716 6.183 6.067zm.951 0c0 3.866-3.194 7-7.134 7-3.94 0-7.134-3.134-7.134-7s3.194-7 7.134-7c3.94 0 7.134 3.134 7.134 7zm7.61-7h.951v14h-.951v-14zm-29.488 0h-.951v14h.951v-14z" fill="#69692C"/></svg>