<svg width="16" height="18" fill="none" xmlns="http://www.w3.org/2000/svg"><path d="M.382.5C.152.574 0 .723 0 .946V4.29c0 .15.076.298.23.372L7.916 9.87a.5.5 0 00.459 0L15.5 4.662a.407.407 0 00.23-.372V.946c0-.297-.383-.52-.689-.372l-6.895 5.06L.688.574C.612.5.458.5.382.5zm0 6c-.23.074-.382.223-.382.446v3.344c0 .149.076.298.23.372l7.687 5.282a.5.5 0 00.459 0l7.124-5.282a.407.407 0 00.23-.372V6.946c0-.298-.383-.52-.689-.372l-6.895 5.06-7.458-5.06C.612 6.5.458 6.425.382 6.5z" fill="#69692C"/></svg>