<svg width="44" height="44" fill="none" xmlns="http://www.w3.org/2000/svg"><path d="M12.13 2c-.077 0-.23.074-.307.149l-.153.148-.764 2.007-2.218.074c-.382 0-.535.595-.23.818l1.683 1.338-.535 2.006c-.077.372.382.67.688.52l1.835-1.189 1.835 1.19c.306.223.841-.149.689-.52l-.612-2.007 1.682-1.338c.23-.223.077-.743-.23-.743l-2.14-.075-.765-2.006c-.153-.223-.306-.372-.459-.372zm10.399 0a.579.579 0 00-.306.149l-.153.148-.765 2.007-2.14.074c-.383 0-.613.595-.307.818l1.683 1.338-.536 2.006c-.076.372.383.67.689.52l1.835-1.189 1.835 1.19c.306.223.764-.149.688-.52l-.535-2.007 1.682-1.338c.306-.223.076-.743-.23-.743l-2.14-.075-.765-2.006C22.91 2.149 22.758 2 22.529 2zm9.685 0a.579.579 0 00-.306.149l-.153.148-.765 2.007-2.14.074c-.383 0-.613.595-.307.818l1.683 1.338-.536 2.006c-.076.372.383.67.688.52l1.836-1.189 1.835 1.19c.306.223.841-.149.688-.52l-.612-2.007 1.683-1.338c.229-.223.076-.743-.23-.743l-2.14-.075-.766-2.006c-.076-.223-.305-.372-.458-.372zM8.382 10.844c-.23 0-.382.223-.382.446v3.345c0 .223.23.446.459.446h27.298c.23 0 .46-.223.46-.446V11.29c0-.223-.23-.446-.46-.446H8.382zm0 5.798c-.23.074-.382.222-.382.445v4.088c0 .149.076.297.23.372l13.687 8.25a.5.5 0 00.459 0l13.687-8.25a.407.407 0 00.23-.372v-4.088c0-.223-.23-.445-.46-.445H8.383zm0 6.816c-.23.075-.382.223-.382.446v3.345c0 .148.076.297.23.371l13.687 8.25a.5.5 0 00.459 0l13.687-8.25a.407.407 0 00.23-.371v-3.345c0-.297-.383-.52-.688-.371l-13.459 8.1-13.458-8.1c-.076-.075-.23-.075-.306-.075zm0 6c-.23.074-.382.223-.382.446v3.345c0 .148.076.297.23.371l13.687 8.324a.5.5 0 00.459 0l13.687-8.324a.407.407 0 00.23-.371v-3.345c0-.297-.383-.52-.688-.372l-13.459 8.102-13.458-8.102c-.076-.074-.23-.148-.306-.074z" fill="#69692C"/></svg>