<svg width="35" height="36" fill="none" xmlns="http://www.w3.org/2000/svg"><g clip-path="url(#clip0)"><path d="M17.453 8.757c1.282 0 2.487.235 3.613.704a9.067 9.067 0 014.926 4.926c.47 1.126.704 2.33.704 3.613 0 1.282-.235 2.47-.704 3.566a9.778 9.778 0 01-1.97 2.955 8.179 8.179 0 01-2.956 1.97c-1.126.439-2.33.69-3.613.752a7.164 7.164 0 01-3.612-.751c-1.127-.563-2.096-1.22-2.91-1.97-.813-.751-1.47-1.736-1.97-2.956s-.75-2.409-.75-3.566.25-2.361.75-3.613c.5-1.25 1.157-2.236 1.97-2.955.814-.72 1.784-1.377 2.91-1.97a6.273 6.273 0 013.612-.705zm0 15.201c.813 0 1.58-.156 2.299-.469a6.628 6.628 0 001.924-1.267 5.04 5.04 0 001.266-1.923 7.35 7.35 0 00.47-2.299c.03-.782-.126-1.564-.47-2.346s-.766-1.423-1.266-1.924c-.5-.5-1.142-.922-1.924-1.266s-1.548-.5-2.299-.47a7.72 7.72 0 00-2.299.47c-.782.281-1.423.704-1.923 1.266a8.201 8.201 0 00-1.267 1.924c-.344.72-.5 1.502-.47 2.346.032.845.188 1.61.47 2.299a6.21 6.21 0 001.267 1.924 4.805 4.805 0 001.923 1.266c.72.25 1.486.407 2.3.47zM34.718 9.227c.282 5.848.282 11.697 0 17.546a8.566 8.566 0 01-.797 3.19 9.228 9.228 0 01-1.83 2.628 9.77 9.77 0 01-2.674 1.877 7.751 7.751 0 01-3.19.797 202.836 202.836 0 01-13.137.14 237.657 237.657 0 01-4.41-.14 8.565 8.565 0 01-3.19-.797 8.763 8.763 0 01-2.628-1.877 11.17 11.17 0 01-1.877-2.627c-.5-.97-.766-2.033-.797-3.19-.25-5.85-.25-11.699 0-17.547a8.565 8.565 0 01.797-3.19 9.39 9.39 0 011.877-2.675 8.843 8.843 0 012.627-1.83c.97-.438 2.033-.704 3.19-.797a182.397 182.397 0 0117.547 0 8.565 8.565 0 013.19.797 9.9 9.9 0 012.675 1.83 7.985 7.985 0 011.83 2.674 10.37 10.37 0 01.797 3.19zm-3.284 17.359a175.64 175.64 0 000-17.219 4.854 4.854 0 00-.516-1.97 7.088 7.088 0 00-1.173-1.69 5.571 5.571 0 00-1.689-1.22 5.127 5.127 0 00-1.97-.515 198.866 198.866 0 00-17.266 0 4.854 4.854 0 00-1.97.516 5.764 5.764 0 00-1.642 1.22c-.47.5-.876 1.063-1.22 1.689a4.032 4.032 0 00-.516 1.97 176.598 176.598 0 000 17.266c.031.688.203 1.345.516 1.97.313.626.72 1.173 1.22 1.642.5.47 1.048.876 1.642 1.22a3.862 3.862 0 001.97.516c5.755.282 11.51.282 17.266 0a4.854 4.854 0 001.97-.516 6.462 6.462 0 001.69-1.22c.5-.5.89-1.063 1.172-1.689a6.117 6.117 0 00.516-1.97zM26.696 6.693c.563 0 1.047.203 1.454.61.407.407.61.891.61 1.454s-.203 1.048-.61 1.455c-.406.406-.891.61-1.454.61a1.986 1.986 0 01-1.455-.61 1.986 1.986 0 01-.61-1.455c0-.563.204-1.047.61-1.454.407-.407.892-.61 1.455-.61z" fill="#80803A"/></g><defs><clipPath id="clip0"><path fill="#fff" transform="translate(0 .5)" d="M0 0h35v35H0z"/></clipPath></defs></svg>