<svg width="36" height="37" fill="none" xmlns="http://www.w3.org/2000/svg"><path d="M22.76 18.618a4.795 4.795 0 11-9.59.001 4.795 4.795 0 019.59 0z" fill="#fff"/><path fill-rule="evenodd" clip-rule="evenodd" d="M31.59 9.214a10.42 10.42 0 01.67 3.538c.087 1.521.088 2.019.091 5.87v.052c0 3.9-.02 4.388-.089 5.924a10.533 10.533 0 01-.669 3.491 7.365 7.365 0 01-4.204 4.204c-1.117.42-2.297.646-3.49.67-1.525.089-2.025.089-5.924.089-3.898 0-4.386-.021-5.923-.09a10.518 10.518 0 01-3.489-.718 7.354 7.354 0 01-4.205-4.203 10.509 10.509 0 01-.669-3.491c-.09-1.526-.09-2.025-.09-5.924 0-3.899.022-4.385.09-5.923a10.46 10.46 0 01.67-3.489A7.349 7.349 0 018.561 5.01a10.55 10.55 0 013.489-.67c1.524-.088 2.024-.088 5.923-.088 2.439 0 3.542.007 4.403.03.515.013.943.032 1.519.058 1.192.024 2.373.251 3.49.67a7.375 7.375 0 013.523 2.869c.27.42.499.867.68 1.335zm-21.007 9.404a7.38 7.38 0 0012.601 5.22 7.383 7.383 0 00-5.22-12.6 7.38 7.38 0 00-7.38 7.38zm13.335-7.654c0 .952.768 1.721 1.722 1.721a1.72 1.72 0 001.215-2.937 1.72 1.72 0 00-2.937 1.216z" fill="#fff"/></svg>