<svg width="44" height="44" fill="none" xmlns="http://www.w3.org/2000/svg"><path fill-rule="evenodd" clip-rule="evenodd" d="M27.42 28.291c-1.736 3.126-3.582 5.982-4.83 7.914a.212.212 0 01-.357.002c-1.277-1.932-3.13-4.789-4.863-7.916h-5.238c-.398 0-.762.222-.947.576l-5.06 9.686c-.375.717.141 1.577.946 1.577h30.684c.804 0 1.321-.86.947-1.577l-5.061-9.686a1.069 1.069 0 00-.947-.576H27.42z" fill="#69692C"/><path fill-rule="evenodd" clip-rule="evenodd" d="M22.238 34.21a.207.207 0 00.348-.002c3.115-4.794 9.783-15.96 9.783-21.32 0-5.46-4.457-9.888-9.956-9.888-5.498 0-9.955 4.427-9.955 9.889 0 5.36 6.594 16.528 9.78 21.321zm.175-16.995c2.406 0 4.356-1.937 4.356-4.326 0-2.39-1.95-4.327-4.356-4.327-2.405 0-4.355 1.937-4.355 4.327 0 2.39 1.95 4.326 4.355 4.326z" fill="#69692C"/></svg>