<svg width="47" height="43" fill="none" xmlns="http://www.w3.org/2000/svg"><path fill-rule="evenodd" clip-rule="evenodd" d="M1.53 9.703c-.505.931-.99 2.164-1.304 3.763a34.7 34.7 0 002.568 1.055c3.252 1.186 5.935 1.539 8.04 1.054 2.054-.472 3.572-1.756 4.554-3.852.102-.217.2-.447.293-.689a6.695 6.695 0 00-.871-1.11c-.06 1.459-1.148 4.023-4.975 4.023a4.217 4.217 0 01-1.892-.464c-1.331.09-2.666-.289-3.801-.978-1.123-.68-2.058-1.667-2.611-2.802z" fill="url(#paint0_linear)"/><path fill-rule="evenodd" clip-rule="evenodd" d="M1.53 9.703c-.505.931-.99 2.164-1.304 3.763a34.7 34.7 0 002.568 1.055c3.252 1.186 5.935 1.539 8.04 1.054 2.054-.472 3.572-1.756 4.554-3.852.102-.217.2-.447.293-.689a6.695 6.695 0 00-.871-1.11c-.06 1.459-1.148 4.023-4.975 4.023a4.217 4.217 0 01-1.892-.464c-1.331.09-2.666-.289-3.801-.978-1.123-.68-2.058-1.667-2.611-2.802z" fill="#fff"/><path fill-rule="evenodd" clip-rule="evenodd" d="M4.023 6.365a.829.829 0 01-.396.825c-.06.038-.782.506-1.577 1.667.425 1.199 1.352 2.258 2.508 2.955.694.42 1.463.71 2.258.82a4.13 4.13 0 01-.935-1.568c-.45-1.08-.655-2.458-.617-3.64a5.387 5.387 0 01-1.241-1.059z" fill="url(#paint1_linear)"/><path fill-rule="evenodd" clip-rule="evenodd" d="M4.023 6.365a.829.829 0 01-.396.825c-.06.038-.782.506-1.577 1.667.425 1.199 1.352 2.258 2.508 2.955.694.42 1.463.71 2.258.82a4.13 4.13 0 01-.935-1.568c-.45-1.08-.655-2.458-.617-3.64a5.387 5.387 0 01-1.241-1.059z" fill="#fff"/><path fill-rule="evenodd" clip-rule="evenodd" d="M9.864 12.344c2.704 0 3.206-1.62 3.3-2.25a7.706 7.706 0 00-2.19-1.67c-.319.756-.638 2.261-1.225 2.249-.693 0-.416-1.752-.267-2.994a26.284 26.284 0 00-2.458-.956 7.184 7.184 0 00.63 4.21 2.4 2.4 0 002.21 1.41z" fill="url(#paint2_linear)"/><path fill-rule="evenodd" clip-rule="evenodd" d="M9.864 12.344c2.704 0 3.206-1.62 3.3-2.25a7.706 7.706 0 00-2.19-1.67c-.319.756-.638 2.261-1.225 2.249-.693 0-.416-1.752-.267-2.994a26.284 26.284 0 00-2.458-.956 7.184 7.184 0 00.63 4.21 2.4 2.4 0 002.21 1.41z" fill="#fff"/><path fill-rule="evenodd" clip-rule="evenodd" d="M23.096 39.994c-.536 1.046-1.03 1.696-2.092 3.006.327-1.344 1.016-5.005-.102-10.14-.566-2.612-.073-3.224 1.041-3.351.32-.039.791-.876 1.148-1.565v.021l.005-.021c.357.689.829 1.526 1.152 1.565 1.11.127 1.603.74 1.037 3.35-1.118 5.136-.429 8.797-.102 10.141-1.063-1.31-1.556-1.96-2.087-3.006z" fill="url(#paint3_linear)"/><path fill-rule="evenodd" clip-rule="evenodd" d="M23.096 39.994c-.536 1.046-1.03 1.696-2.092 3.006.327-1.344 1.016-5.005-.102-10.14-.566-2.612-.073-3.224 1.041-3.351.32-.039.791-.876 1.148-1.565v.021l.005-.021c.357.689.829 1.526 1.152 1.565 1.11.127 1.603.74 1.037 3.35-1.118 5.136-.429 8.797-.102 10.141-1.063-1.31-1.556-1.96-2.087-3.006z" fill="#fff"/><path fill-rule="evenodd" clip-rule="evenodd" d="M16.578 24.453c.166-1.675.149-3.788.217-5.421-.714.017-1.786.212-2.33.523.072 1.34.408 2.78 1.237 4.375.642 1.224.808 1.19.876.523z" fill="url(#paint4_linear)"/><path fill-rule="evenodd" clip-rule="evenodd" d="M16.578 24.453c.166-1.675.149-3.788.217-5.421-.714.017-1.786.212-2.33.523.072 1.34.408 2.78 1.237 4.375.642 1.224.808 1.19.876.523z" fill="#fff"/><path fill-rule="evenodd" clip-rule="evenodd" d="M19.648 32.417c-.51-.51-.948-1.25-1.411-2.037-.29-.488-.587-.99-.919-1.475a8.033 8.033 0 001.718-.804 5.89 5.89 0 001.633-1.48c.884-.297 1.586-.569 2.105-.811l.178-.085-.54.901c-.204.344-.714 1.216-1.024 1.535-1.808.608-2.063 2.432-1.74 4.256z" fill="url(#paint5_linear)"/><path fill-rule="evenodd" clip-rule="evenodd" d="M19.648 32.417c-.51-.51-.948-1.25-1.411-2.037-.29-.488-.587-.99-.919-1.475a8.033 8.033 0 001.718-.804 5.89 5.89 0 001.633-1.48c.884-.297 1.586-.569 2.105-.811l.178-.085-.54.901c-.204.344-.714 1.216-1.024 1.535-1.808.608-2.063 2.432-1.74 4.256z" fill="#fff"/><path fill-rule="evenodd" clip-rule="evenodd" d="M5.247 20.396a5.386 5.386 0 01-2.13-1.314c.243 3.27 2.28 4.695 4.818 6.472 1.394.91 2.772 1.16 3.954 2.343-2.224-4.418-5.081-4.035-6.642-7.5z" fill="url(#paint6_linear)"/><path fill-rule="evenodd" clip-rule="evenodd" d="M5.247 20.396a5.386 5.386 0 01-2.13-1.314c.243 3.27 2.28 4.695 4.818 6.472 1.394.91 2.772 1.16 3.954 2.343-2.224-4.418-5.081-4.035-6.642-7.5z" fill="#fff"/><path fill-rule="evenodd" clip-rule="evenodd" d="M12.845 27.893c5.353 4.873 4.6 9.014 7.44 10.413.022-1.552-.131-3.112-.493-4.541-1.025-.515-1.688-1.637-2.402-2.853-.45-.761-.927-1.565-1.53-2.25.301-.242.688-.688 1.309-1.13-2.445-.85-4.052-1.65-7.811-5.451-1.412-.664-1.799-.664-1.16 0 1.738 1.394 3.286 3.333 4.646 5.812z" fill="url(#paint7_linear)"/><path fill-rule="evenodd" clip-rule="evenodd" d="M12.845 27.893c5.353 4.873 4.6 9.014 7.44 10.413.022-1.552-.131-3.112-.493-4.541-1.025-.515-1.688-1.637-2.402-2.853-.45-.761-.927-1.565-1.53-2.25.301-.242.688-.688 1.309-1.13-2.445-.85-4.052-1.65-7.811-5.451-1.412-.664-1.799-.664-1.16 0 1.738 1.394 3.286 3.333 4.646 5.812z" fill="#fff"/><path fill-rule="evenodd" clip-rule="evenodd" d="M16.66 1.416C18.84.48 20.897.009 23.096 0c2.194.009 4.252.48 6.437 1.416-3.529.378-5.107 1.059-6.437 2.283v-.004l-.005.004c-1.326-1.224-2.904-1.905-6.433-2.283z" fill="url(#paint8_linear)"/><path fill-rule="evenodd" clip-rule="evenodd" d="M16.66 1.416C18.84.48 20.897.009 23.096 0c2.194.009 4.252.48 6.437 1.416-3.529.378-5.107 1.059-6.437 2.283v-.004l-.005.004c-1.326-1.224-2.904-1.905-6.433-2.283z" fill="#fff"/><path fill-rule="evenodd" clip-rule="evenodd" d="M44.658 9.703c.506.931.99 2.164 1.305 3.763-.888.404-1.743.757-2.568 1.055-3.253 1.186-5.931 1.539-8.036 1.054-2.058-.472-3.576-1.756-4.558-3.852a8.584 8.584 0 01-.29-.689 6.45 6.45 0 01.868-1.11c.06 1.459 1.152 4.023 4.975 4.023a4.203 4.203 0 001.892-.464c1.33.09 2.666-.289 3.805-.978 1.119-.68 2.054-1.667 2.607-2.802z" fill="url(#paint9_linear)"/><path fill-rule="evenodd" clip-rule="evenodd" d="M44.658 9.703c.506.931.99 2.164 1.305 3.763-.888.404-1.743.757-2.568 1.055-3.253 1.186-5.931 1.539-8.036 1.054-2.058-.472-3.576-1.756-4.558-3.852a8.584 8.584 0 01-.29-.689 6.45 6.45 0 01.868-1.11c.06 1.459 1.152 4.023 4.975 4.023a4.203 4.203 0 001.892-.464c1.33.09 2.666-.289 3.805-.978 1.119-.68 2.054-1.667 2.607-2.802z" fill="#fff"/><path fill-rule="evenodd" clip-rule="evenodd" d="M42.167 6.365a.836.836 0 00.395.825c.06.038.782.506 1.578 1.667-.426 1.199-1.353 2.258-2.51 2.955-.688.42-1.462.71-2.257.82.417-.437.74-.969.94-1.568.446-1.08.65-2.458.612-3.64a5.387 5.387 0 001.242-1.059z" fill="url(#paint10_linear)"/><path fill-rule="evenodd" clip-rule="evenodd" d="M42.167 6.365a.836.836 0 00.395.825c.06.038.782.506 1.578 1.667-.426 1.199-1.353 2.258-2.51 2.955-.688.42-1.462.71-2.257.82.417-.437.74-.969.94-1.568.446-1.08.65-2.458.612-3.64a5.387 5.387 0 001.242-1.059z" fill="#fff"/><path fill-rule="evenodd" clip-rule="evenodd" d="M36.324 12.344c-2.704 0-3.206-1.62-3.3-2.25a7.706 7.706 0 012.19-1.67c.32.756.638 2.261 1.229 2.249.689 0 .412-1.752.264-2.994a26.322 26.322 0 012.462-.956 7.22 7.22 0 01-.634 4.21 2.4 2.4 0 01-2.211 1.41z" fill="url(#paint11_linear)"/><path fill-rule="evenodd" clip-rule="evenodd" d="M36.324 12.344c-2.704 0-3.206-1.62-3.3-2.25a7.706 7.706 0 012.19-1.67c.32.756.638 2.261 1.229 2.249.689 0 .412-1.752.264-2.994a26.322 26.322 0 012.462-.956 7.22 7.22 0 01-.634 4.21 2.4 2.4 0 01-2.211 1.41z" fill="#fff"/><path fill-rule="evenodd" clip-rule="evenodd" d="M42.536 18.462c-1.203.323-2.444.48-3.694.46a16.589 16.589 0 01-4.546-.609c-1.382-.42-2.866-.501-4.167-1.135a36.215 36.215 0 00-2.883-.88 12.96 12.96 0 00-.127-1.288 14.18 14.18 0 00-.366-1.671.402.402 0 00-.497-.281.41.41 0 00-.294.353v.008c-.004.06-.012.115-.02.166-.111.69-.43 1.276-.864 1.671-.25.234-.544.4-.859.48a14.586 14.586 0 00-1.122-.072c-.37.009-.745.034-1.127.073a1.992 1.992 0 01-.86-.48c-.433-.396-.752-.983-.862-1.672-.005-.05-.013-.106-.021-.166v-.008a.409.409 0 00-.294-.353.402.402 0 00-.497.28 14.16 14.16 0 00-.366 1.672 12.96 12.96 0 00-.128 1.288c-.897.23-1.85.523-2.882.88-1.301.634-2.785.714-4.167 1.135a16.59 16.59 0 01-4.546.609 13.386 13.386 0 01-3.695-.46C1.127 17.697.272 16.158 0 14.96c.026-.23.055-.451.09-.672.841.382 1.653.71 2.427.995 3.406 1.241 6.238 1.603 8.495 1.084 2.31-.531 4.014-1.964 5.107-4.303.136-.298.264-.604.383-.918v-.005l.004-.008v-.009l.004-.004v-.008l.005-.005v-.012l.004-.005v-.012l.004-.009v-.013l.004-.004v-.034l.005-.017v-.021l-.005-.009v-.038l-.004-.008v-.013l-.004-.009v-.008l-.004-.009v-.012h-.005v-.009l-.008-.017v-.004l-.004-.005v-.008l-.005-.004v-.005l-.004-.004v-.008h-.004v-.01l-.004-.004h-.005v-.008l-.008-.009c-.476-.825-1.174-1.603-2.088-2.334-1.99-1.59-5.043-2.836-7.483-3.546C5.34 4.214 4.12 3.487 3.244 2.717c.642-.404 2.36-1.212 5.762-1.212a8.54 8.54 0 013.142.562c2.045.859 9.482 1.964 10.204 4.06.256.898.506 1.425.745 1.65.233-.225.484-.752.74-1.65.727-2.096 8.159-3.201 10.204-4.06a8.54 8.54 0 013.142-.562c3.402 0 5.124.808 5.762 1.212-.876.77-2.092 1.497-3.653 2.182-2.44.71-5.493 1.955-7.479 3.546-.918.731-1.616 1.51-2.092 2.334l-.008.008v.009h-.005v.004l-.008.017v.005l-.004.004v.004l-.005.004v.005l-.004.004v.004l-.004.008v.009h-.004v.008l-.005.009v.004l-.004.009v.017l-.004.008v.013l-.004.009v.089l.004.017v.021l.004.009v.012l.004.005v.012l.005.005v.004l.004.004v.009l.004.004v.008l.004.005c.115.314.243.62.379.918 1.093 2.339 2.798 3.771 5.106 4.303 2.258.519 5.094.157 8.496-1.084a36.455 36.455 0 002.432-.995c.03.22.06.442.085.672-.272 1.199-1.127 2.738-3.653 3.503z" fill="url(#paint12_linear)"/><path fill-rule="evenodd" clip-rule="evenodd" d="M42.536 18.462c-1.203.323-2.444.48-3.694.46a16.589 16.589 0 01-4.546-.609c-1.382-.42-2.866-.501-4.167-1.135a36.215 36.215 0 00-2.883-.88 12.96 12.96 0 00-.127-1.288 14.18 14.18 0 00-.366-1.671.402.402 0 00-.497-.281.41.41 0 00-.294.353v.008c-.004.06-.012.115-.02.166-.111.69-.43 1.276-.864 1.671-.25.234-.544.4-.859.48a14.586 14.586 0 00-1.122-.072c-.37.009-.745.034-1.127.073a1.992 1.992 0 01-.86-.48c-.433-.396-.752-.983-.862-1.672-.005-.05-.013-.106-.021-.166v-.008a.409.409 0 00-.294-.353.402.402 0 00-.497.28 14.16 14.16 0 00-.366 1.672 12.96 12.96 0 00-.128 1.288c-.897.23-1.85.523-2.882.88-1.301.634-2.785.714-4.167 1.135a16.59 16.59 0 01-4.546.609 13.386 13.386 0 01-3.695-.46C1.127 17.697.272 16.158 0 14.96c.026-.23.055-.451.09-.672.841.382 1.653.71 2.427.995 3.406 1.241 6.238 1.603 8.495 1.084 2.31-.531 4.014-1.964 5.107-4.303.136-.298.264-.604.383-.918v-.005l.004-.008v-.009l.004-.004v-.008l.005-.005v-.012l.004-.005v-.012l.004-.009v-.013l.004-.004v-.034l.005-.017v-.021l-.005-.009v-.038l-.004-.008v-.013l-.004-.009v-.008l-.004-.009v-.012h-.005v-.009l-.008-.017v-.004l-.004-.005v-.008l-.005-.004v-.005l-.004-.004v-.008h-.004v-.01l-.004-.004h-.005v-.008l-.008-.009c-.476-.825-1.174-1.603-2.088-2.334-1.99-1.59-5.043-2.836-7.483-3.546C5.34 4.214 4.12 3.487 3.244 2.717c.642-.404 2.36-1.212 5.762-1.212a8.54 8.54 0 013.142.562c2.045.859 9.482 1.964 10.204 4.06.256.898.506 1.425.745 1.65.233-.225.484-.752.74-1.65.727-2.096 8.159-3.201 10.204-4.06a8.54 8.54 0 013.142-.562c3.402 0 5.124.808 5.762 1.212-.876.77-2.092 1.497-3.653 2.182-2.44.71-5.493 1.955-7.479 3.546-.918.731-1.616 1.51-2.092 2.334l-.008.008v.009h-.005v.004l-.008.017v.005l-.004.004v.004l-.005.004v.005l-.004.004v.004l-.004.008v.009h-.004v.008l-.005.009v.004l-.004.009v.017l-.004.008v.013l-.004.009v.089l.004.017v.021l.004.009v.012l.004.005v.012l.005.005v.004l.004.004v.009l.004.004v.008l.004.005c.115.314.243.62.379.918 1.093 2.339 2.798 3.771 5.106 4.303 2.258.519 5.094.157 8.496-1.084a36.455 36.455 0 002.432-.995c.03.22.06.442.085.672-.272 1.199-1.127 2.738-3.653 3.503z" fill="#fff"/><path fill-rule="evenodd" clip-rule="evenodd" d="M29.61 24.453c-.166-1.675-.149-3.788-.212-5.421.714.017 1.785.212 2.325.523-.072 1.34-.408 2.78-1.237 4.375-.638 1.224-.808 1.19-.876.523z" fill="url(#paint13_linear)"/><path fill-rule="evenodd" clip-rule="evenodd" d="M29.61 24.453c-.166-1.675-.149-3.788-.212-5.421.714.017 1.785.212 2.325.523-.072 1.34-.408 2.78-1.237 4.375-.638 1.224-.808 1.19-.876.523z" fill="#fff"/><path fill-rule="evenodd" clip-rule="evenodd" d="M26.54 32.417c.511-.51.949-1.25 1.412-2.037.29-.488.587-.99.919-1.475a8.035 8.035 0 01-1.718-.804 5.95 5.95 0 01-1.633-1.48c-.884-.297-1.586-.569-2.1-.811l-.179-.085.536.901c.208.344.714 1.216 1.025 1.535 1.807.608 2.066 2.432 1.739 4.256z" fill="url(#paint14_linear)"/><path fill-rule="evenodd" clip-rule="evenodd" d="M26.54 32.417c.511-.51.949-1.25 1.412-2.037.29-.488.587-.99.919-1.475a8.035 8.035 0 01-1.718-.804 5.95 5.95 0 01-1.633-1.48c-.884-.297-1.586-.569-2.1-.811l-.179-.085.536.901c.208.344.714 1.216 1.025 1.535 1.807.608 2.066 2.432 1.739 4.256z" fill="#fff"/><path fill-rule="evenodd" clip-rule="evenodd" d="M40.942 20.396a5.357 5.357 0 002.13-1.314c-.242 3.27-2.279 4.695-4.817 6.472-1.395.91-2.772 1.16-3.954 2.343 2.224-4.418 5.08-4.035 6.641-7.5z" fill="url(#paint15_linear)"/><path fill-rule="evenodd" clip-rule="evenodd" d="M40.942 20.396a5.357 5.357 0 002.13-1.314c-.242 3.27-2.279 4.695-4.817 6.472-1.395.91-2.772 1.16-3.954 2.343 2.224-4.418 5.08-4.035 6.641-7.5z" fill="#fff"/><path fill-rule="evenodd" clip-rule="evenodd" d="M33.344 27.893c-5.354 4.873-4.6 9.014-7.437 10.413-.026-1.552.128-3.112.489-4.541 1.025-.515 1.688-1.637 2.407-2.853.45-.761.922-1.565 1.526-2.25-.298-.242-.689-.688-1.31-1.13 2.445-.85 4.057-1.65 7.811-5.451 1.412-.664 1.799-.664 1.161 0-1.735 1.394-3.287 3.333-4.647 5.812z" fill="url(#paint16_linear)"/><path fill-rule="evenodd" clip-rule="evenodd" d="M33.344 27.893c-5.354 4.873-4.6 9.014-7.437 10.413-.026-1.552.128-3.112.489-4.541 1.025-.515 1.688-1.637 2.407-2.853.45-.761.922-1.565 1.526-2.25-.298-.242-.689-.688-1.31-1.13 2.445-.85 4.057-1.65 7.811-5.451 1.412-.664 1.799-.664 1.161 0-1.735 1.394-3.287 3.333-4.647 5.812z" fill="#fff"/><defs><linearGradient id="paint0_linear" x1="0" y1="5.5" x2="40.5" y2="36" gradientUnits="userSpaceOnUse"><stop stop-color="#838383"/><stop offset=".407" stop-color="#666"/><stop offset=".433" stop-color="#979797"/><stop offset=".575" stop-color="#6D6D6D"/><stop offset=".616" stop-color="#fff"/><stop offset=".7" stop-color="#9B9B9B"/><stop offset=".727" stop-color="#fff"/><stop offset=".783" stop-color="#838383"/></linearGradient><linearGradient id="paint1_linear" x1="0" y1="5.5" x2="40.5" y2="36" gradientUnits="userSpaceOnUse"><stop stop-color="#838383"/><stop offset=".407" stop-color="#666"/><stop offset=".433" stop-color="#979797"/><stop offset=".575" stop-color="#6D6D6D"/><stop offset=".616" stop-color="#fff"/><stop offset=".7" stop-color="#9B9B9B"/><stop offset=".727" stop-color="#fff"/><stop offset=".783" stop-color="#838383"/></linearGradient><linearGradient id="paint2_linear" x1="0" y1="5.5" x2="40.5" y2="36" gradientUnits="userSpaceOnUse"><stop stop-color="#838383"/><stop offset=".407" stop-color="#666"/><stop offset=".433" stop-color="#979797"/><stop offset=".575" stop-color="#6D6D6D"/><stop offset=".616" stop-color="#fff"/><stop offset=".7" stop-color="#9B9B9B"/><stop offset=".727" stop-color="#fff"/><stop offset=".783" stop-color="#838383"/></linearGradient><linearGradient id="paint3_linear" x1="0" y1="5.5" x2="40.5" y2="36" gradientUnits="userSpaceOnUse"><stop stop-color="#838383"/><stop offset=".407" stop-color="#666"/><stop offset=".433" stop-color="#979797"/><stop offset=".575" stop-color="#6D6D6D"/><stop offset=".616" stop-color="#fff"/><stop offset=".7" stop-color="#9B9B9B"/><stop offset=".727" stop-color="#fff"/><stop offset=".783" stop-color="#838383"/></linearGradient><linearGradient id="paint4_linear" x1="0" y1="5.5" x2="40.5" y2="36" gradientUnits="userSpaceOnUse"><stop stop-color="#838383"/><stop offset=".407" stop-color="#666"/><stop offset=".433" stop-color="#979797"/><stop offset=".575" stop-color="#6D6D6D"/><stop offset=".616" stop-color="#fff"/><stop offset=".7" stop-color="#9B9B9B"/><stop offset=".727" stop-color="#fff"/><stop offset=".783" stop-color="#838383"/></linearGradient><linearGradient id="paint5_linear" x1="0" y1="5.5" x2="40.5" y2="36" gradientUnits="userSpaceOnUse"><stop stop-color="#838383"/><stop offset=".407" stop-color="#666"/><stop offset=".433" stop-color="#979797"/><stop offset=".575" stop-color="#6D6D6D"/><stop offset=".616" stop-color="#fff"/><stop offset=".7" stop-color="#9B9B9B"/><stop offset=".727" stop-color="#fff"/><stop offset=".783" stop-color="#838383"/></linearGradient><linearGradient id="paint6_linear" x1="0" y1="5.5" x2="40.5" y2="36" gradientUnits="userSpaceOnUse"><stop stop-color="#838383"/><stop offset=".407" stop-color="#666"/><stop offset=".433" stop-color="#979797"/><stop offset=".575" stop-color="#6D6D6D"/><stop offset=".616" stop-color="#fff"/><stop offset=".7" stop-color="#9B9B9B"/><stop offset=".727" stop-color="#fff"/><stop offset=".783" stop-color="#838383"/></linearGradient><linearGradient id="paint7_linear" x1="0" y1="5.5" x2="40.5" y2="36" gradientUnits="userSpaceOnUse"><stop stop-color="#838383"/><stop offset=".407" stop-color="#666"/><stop offset=".433" stop-color="#979797"/><stop offset=".575" stop-color="#6D6D6D"/><stop offset=".616" stop-color="#fff"/><stop offset=".7" stop-color="#9B9B9B"/><stop offset=".727" stop-color="#fff"/><stop offset=".783" stop-color="#838383"/></linearGradient><linearGradient id="paint8_linear" x1="0" y1="5.5" x2="40.5" y2="36" gradientUnits="userSpaceOnUse"><stop stop-color="#838383"/><stop offset=".407" stop-color="#666"/><stop offset=".433" stop-color="#979797"/><stop offset=".575" stop-color="#6D6D6D"/><stop offset=".616" stop-color="#fff"/><stop offset=".7" stop-color="#9B9B9B"/><stop offset=".727" stop-color="#fff"/><stop offset=".783" stop-color="#838383"/></linearGradient><linearGradient id="paint9_linear" x1="0" y1="5.5" x2="40.5" y2="36" gradientUnits="userSpaceOnUse"><stop stop-color="#838383"/><stop offset=".407" stop-color="#666"/><stop offset=".433" stop-color="#979797"/><stop offset=".575" stop-color="#6D6D6D"/><stop offset=".616" stop-color="#fff"/><stop offset=".7" stop-color="#9B9B9B"/><stop offset=".727" stop-color="#fff"/><stop offset=".783" stop-color="#838383"/></linearGradient><linearGradient id="paint10_linear" x1="0" y1="5.5" x2="40.5" y2="36" gradientUnits="userSpaceOnUse"><stop stop-color="#838383"/><stop offset=".407" stop-color="#666"/><stop offset=".433" stop-color="#979797"/><stop offset=".575" stop-color="#6D6D6D"/><stop offset=".616" stop-color="#fff"/><stop offset=".7" stop-color="#9B9B9B"/><stop offset=".727" stop-color="#fff"/><stop offset=".783" stop-color="#838383"/></linearGradient><linearGradient id="paint11_linear" x1="0" y1="5.5" x2="40.5" y2="36" gradientUnits="userSpaceOnUse"><stop stop-color="#838383"/><stop offset=".407" stop-color="#666"/><stop offset=".433" stop-color="#979797"/><stop offset=".575" stop-color="#6D6D6D"/><stop offset=".616" stop-color="#fff"/><stop offset=".7" stop-color="#9B9B9B"/><stop offset=".727" stop-color="#fff"/><stop offset=".783" stop-color="#838383"/></linearGradient><linearGradient id="paint12_linear" x1="0" y1="5.5" x2="40.5" y2="36" gradientUnits="userSpaceOnUse"><stop stop-color="#838383"/><stop offset=".407" stop-color="#666"/><stop offset=".433" stop-color="#979797"/><stop offset=".575" stop-color="#6D6D6D"/><stop offset=".616" stop-color="#fff"/><stop offset=".7" stop-color="#9B9B9B"/><stop offset=".727" stop-color="#fff"/><stop offset=".783" stop-color="#838383"/></linearGradient><linearGradient id="paint13_linear" x1="0" y1="5.5" x2="40.5" y2="36" gradientUnits="userSpaceOnUse"><stop stop-color="#838383"/><stop offset=".407" stop-color="#666"/><stop offset=".433" stop-color="#979797"/><stop offset=".575" stop-color="#6D6D6D"/><stop offset=".616" stop-color="#fff"/><stop offset=".7" stop-color="#9B9B9B"/><stop offset=".727" stop-color="#fff"/><stop offset=".783" stop-color="#838383"/></linearGradient><linearGradient id="paint14_linear" x1="0" y1="5.5" x2="40.5" y2="36" gradientUnits="userSpaceOnUse"><stop stop-color="#838383"/><stop offset=".407" stop-color="#666"/><stop offset=".433" stop-color="#979797"/><stop offset=".575" stop-color="#6D6D6D"/><stop offset=".616" stop-color="#fff"/><stop offset=".7" stop-color="#9B9B9B"/><stop offset=".727" stop-color="#fff"/><stop offset=".783" stop-color="#838383"/></linearGradient><linearGradient id="paint15_linear" x1="0" y1="5.5" x2="40.5" y2="36" gradientUnits="userSpaceOnUse"><stop stop-color="#838383"/><stop offset=".407" stop-color="#666"/><stop offset=".433" stop-color="#979797"/><stop offset=".575" stop-color="#6D6D6D"/><stop offset=".616" stop-color="#fff"/><stop offset=".7" stop-color="#9B9B9B"/><stop offset=".727" stop-color="#fff"/><stop offset=".783" stop-color="#838383"/></linearGradient><linearGradient id="paint16_linear" x1="0" y1="5.5" x2="40.5" y2="36" gradientUnits="userSpaceOnUse"><stop stop-color="#838383"/><stop offset=".407" stop-color="#666"/><stop offset=".433" stop-color="#979797"/><stop offset=".575" stop-color="#6D6D6D"/><stop offset=".616" stop-color="#fff"/><stop offset=".7" stop-color="#9B9B9B"/><stop offset=".727" stop-color="#fff"/><stop offset=".783" stop-color="#838383"/></linearGradient></defs></svg>