<svg width="153" height="27" fill="none" xmlns="http://www.w3.org/2000/svg"><path d="M21.947 7.664V2.273C19.336 1.057 16.555.708 13.256.708 5.78.708.045 6.448.045 13.4c0 5.14 3.078 9.473 7.598 11.48 4.673 2.08 8.53 1.45 12.9-.876l-2.219-12.692-.174-.174h-4.945l-.158.204 1.688 9.546c-1.968.42-4.239-.013-5.982-1.165a7.266 7.266 0 01-1.089-.876c-1.428-1.395-2.232-3.33-2.232-5.447 0-4.171 3.13-7.65 7.824-7.65 2.955 0 5.91.524 8.516 2.089l.175-.175z" fill="url(#paint0_linear)"/><path d="M21.947 7.664V2.273C19.336 1.057 16.555.708 13.256.708 5.78.708.045 6.448.045 13.4c0 5.14 3.078 9.473 7.598 11.48 4.673 2.08 8.53 1.45 12.9-.876l-2.219-12.692-.174-.174h-4.945l-.158.204 1.688 9.546c-1.968.42-4.239-.013-5.982-1.165a7.266 7.266 0 01-1.089-.876c-1.428-1.395-2.232-3.33-2.232-5.447 0-4.171 3.13-7.65 7.824-7.65 2.955 0 5.91.524 8.516 2.089l.175-.175z" fill="#fff"/><path d="M33.895 1.155l-.18.178v13.534c0 7.203 4.925 11.425 10.899 11.425 5.978 0 10.897-4.222 10.897-11.425V1.333l-.174-.178h-4.57l-.175.178v12.828c0 4.746-2.636 7.033-5.978 7.033-3.338 0-5.974-2.287-5.974-7.033V1.333l-.179-.178h-4.566z" fill="url(#paint1_linear)"/><path d="M33.895 1.155l-.18.178v13.534c0 7.203 4.925 11.425 10.899 11.425 5.978 0 10.897-4.222 10.897-11.425V1.333l-.174-.178h-4.57l-.175.178v12.828c0 4.746-2.636 7.033-5.978 7.033-3.338 0-5.974-2.287-5.974-7.033V1.333l-.179-.178h-4.566z" fill="#fff"/><path d="M67.034 1.155l-.174.178v24.253l.174.179h4.571l.175-.179V6.078h3.911c1.757 0 3.351.655 3.351 2.415 0 1.756-2.016 3.232-4.839 5.434l1.488 1.995 7.382 9.664.174.179h5.626l.174-.179L80.61 14.34c1.79-1.697 3.516-2.99 3.516-5.804 0-4.04-3.163-7.381-8.436-7.381h-8.657z" fill="url(#paint2_linear)"/><path d="M67.034 1.155l-.174.178v24.253l.174.179h4.571l.175-.179V6.078h3.911c1.757 0 3.351.655 3.351 2.415 0 1.756-2.016 3.232-4.839 5.434l1.488 1.995 7.382 9.664.174.179h5.626l.174-.179L80.61 14.34c1.79-1.697 3.516-2.99 3.516-5.804 0-4.04-3.163-7.381-8.436-7.381h-8.657z" fill="#fff"/><path d="M98.167 1.155l-.174.178V5.9l.174.178h11.952l-12.48 19.508.175.179h21.094l.174-.179v-4.532l-.174-.213h-12.479l12.479-19.508-.179-.178H98.167z" fill="url(#paint3_linear)"/><path d="M98.167 1.155l-.174.178V5.9l.174.178h11.952l-12.48 19.508.175.179h21.094l.174-.179v-4.532l-.174-.213h-12.479l12.479-19.508-.179-.178H98.167z" fill="#fff"/><path d="M137.872 1.155l-.178.178-9.317 24.253.179.179h5.447l.174-.179.191-.523 3.155-9.32h-.004l2.811-8.257 2.058 6.033.004.022.753 2.202h-.009l2.849 8.449.497 1.394.175.179h5.451l.174-.179-9.316-24.253-.174-.178h-4.92z" fill="url(#paint4_linear)"/><path d="M137.872 1.155l-.178.178-9.317 24.253.179.179h5.447l.174-.179.191-.523 3.155-9.32h-.004l2.811-8.257 2.058 6.033.004.022.753 2.202h-.009l2.849 8.449.497 1.394.175.179h5.451l.174-.179-9.316-24.253-.174-.178h-4.92z" fill="#fff"/><defs><linearGradient id="paint0_linear" x1="121.5" y1="44.5" x2="94" y2="-33.5" gradientUnits="userSpaceOnUse"><stop stop-color="#fff"/><stop offset=".235" stop-color="#fff"/><stop offset=".285" stop-color="#7C7C7C"/><stop offset=".324" stop-color="#A3A3A3"/><stop offset=".457" stop-color="#fff"/><stop offset=".503" stop-color="#C8C6C6"/><stop offset=".547" stop-color="#fff"/><stop offset=".647" stop-color="#9E9E9E"/><stop offset=".758" stop-color="#fff"/><stop offset=".799" stop-color="#A5A5A5"/><stop offset=".874" stop-color="#fff"/><stop offset="1" stop-color="#fff"/></linearGradient><linearGradient id="paint1_linear" x1="121.5" y1="44.5" x2="94" y2="-33.5" gradientUnits="userSpaceOnUse"><stop stop-color="#fff"/><stop offset=".235" stop-color="#fff"/><stop offset=".285" stop-color="#7C7C7C"/><stop offset=".324" stop-color="#A3A3A3"/><stop offset=".457" stop-color="#fff"/><stop offset=".503" stop-color="#C8C6C6"/><stop offset=".547" stop-color="#fff"/><stop offset=".647" stop-color="#9E9E9E"/><stop offset=".758" stop-color="#fff"/><stop offset=".799" stop-color="#A5A5A5"/><stop offset=".874" stop-color="#fff"/><stop offset="1" stop-color="#fff"/></linearGradient><linearGradient id="paint2_linear" x1="121.5" y1="44.5" x2="94" y2="-33.5" gradientUnits="userSpaceOnUse"><stop stop-color="#fff"/><stop offset=".235" stop-color="#fff"/><stop offset=".285" stop-color="#7C7C7C"/><stop offset=".324" stop-color="#A3A3A3"/><stop offset=".457" stop-color="#fff"/><stop offset=".503" stop-color="#C8C6C6"/><stop offset=".547" stop-color="#fff"/><stop offset=".647" stop-color="#9E9E9E"/><stop offset=".758" stop-color="#fff"/><stop offset=".799" stop-color="#A5A5A5"/><stop offset=".874" stop-color="#fff"/><stop offset="1" stop-color="#fff"/></linearGradient><linearGradient id="paint3_linear" x1="121.5" y1="44.5" x2="94" y2="-33.5" gradientUnits="userSpaceOnUse"><stop stop-color="#fff"/><stop offset=".235" stop-color="#fff"/><stop offset=".285" stop-color="#7C7C7C"/><stop offset=".324" stop-color="#A3A3A3"/><stop offset=".457" stop-color="#fff"/><stop offset=".503" stop-color="#C8C6C6"/><stop offset=".547" stop-color="#fff"/><stop offset=".647" stop-color="#9E9E9E"/><stop offset=".758" stop-color="#fff"/><stop offset=".799" stop-color="#A5A5A5"/><stop offset=".874" stop-color="#fff"/><stop offset="1" stop-color="#fff"/></linearGradient><linearGradient id="paint4_linear" x1="121.5" y1="44.5" x2="94" y2="-33.5" gradientUnits="userSpaceOnUse"><stop stop-color="#fff"/><stop offset=".235" stop-color="#fff"/><stop offset=".285" stop-color="#7C7C7C"/><stop offset=".324" stop-color="#A3A3A3"/><stop offset=".457" stop-color="#fff"/><stop offset=".503" stop-color="#C8C6C6"/><stop offset=".547" stop-color="#fff"/><stop offset=".647" stop-color="#9E9E9E"/><stop offset=".758" stop-color="#fff"/><stop offset=".799" stop-color="#A5A5A5"/><stop offset=".874" stop-color="#fff"/><stop offset="1" stop-color="#fff"/></linearGradient></defs></svg>