<svg width="12" height="18" fill="none" xmlns="http://www.w3.org/2000/svg"><path d="M12 6.3c0-.827-.155-1.647-.457-2.41a6.33 6.33 0 00-1.3-2.045A5.989 5.989 0 008.296.48 5.753 5.753 0 006 0c-.788 0-1.568.163-2.296.48a5.99 5.99 0 00-1.947 1.365 6.33 6.33 0 00-1.3 2.044A6.574 6.574 0 000 6.3c0 1.248.351 2.41.947 3.388H.94C2.963 13.014 6 18 6 18l5.06-8.312h-.006A6.513 6.513 0 0012 6.3zM6 9a2.51 2.51 0 01-1.818-.79 2.77 2.77 0 01-.753-1.91c0-.716.27-1.403.753-1.91A2.51 2.51 0 016 3.6a2.51 2.51 0 011.818.79 2.77 2.77 0 01.753 1.91 2.77 2.77 0 01-.753 1.91A2.51 2.51 0 016 9z" fill="#fff"/></svg>