<svg width="16" height="16" fill="none" xmlns="http://www.w3.org/2000/svg"><path d="M14.567 3.046l-1.872-1.87a1.42 1.42 0 00-1.007-.418c-.382 0-.74.15-1.01.418L8.665 3.191a1.421 1.421 0 000 2.016l1.473 1.473a6.923 6.923 0 01-1.415 2.04 6.949 6.949 0 01-2.04 1.421L5.209 8.668a1.42 1.42 0 00-2.017 0l-2.016 2.013a1.421 1.421 0 00-.418 1.009c0 .381.15.74.418 1.009l1.869 1.868a2.31 2.31 0 002.002.643c2.37-.39 4.72-1.65 6.616-3.545 1.895-1.893 3.154-4.242 3.55-6.618a2.314 2.314 0 00-.646-2z" fill="#fff"/></svg>