<svg width="44" height="44" fill="none" xmlns="http://www.w3.org/2000/svg"><path d="M22.058 4C12.126 4 4 12.036 4 21.968s8.126 18.058 18.058 18.058S40.116 31.9 40.116 21.968 31.99 4 22.058 4zm-.542 8.126H22.6v1.625h4.153a3.044 3.044 0 013.07 3.07v4.605h2.167v1.084h-2.077v4.514a3.045 3.045 0 01-3.07 3.07H22.69V31.9h-1.083v-1.716h-4.154c-1.715 0-3.07-1.444-3.07-3.07V22.6h-2.257v-1.084h2.077v-4.604a3.045 3.045 0 013.07-3.07h4.153v-1.716h.09zm-4.153 2.709a2.004 2.004 0 00-1.986 1.986v4.605h1.444v1.084h-1.444v4.514c0 1.084.902 1.986 1.986 1.986h4.153v-1.625H22.6v1.716h4.153a2.004 2.004 0 001.987-1.987V22.6h-1.445v-1.084h1.445v-4.604a2.004 2.004 0 00-1.987-1.987H22.6v1.806h-1.084v-1.806h-4.153v-.09zm4.695 4.334a2.813 2.813 0 012.8 2.799 2.813 2.813 0 01-2.8 2.799 2.813 2.813 0 01-2.799-2.8 2.813 2.813 0 012.8-2.798zm0 .993c-.993 0-1.806.722-1.806 1.716 0 .993.813 1.715 1.806 1.715.993 0 1.716-.722 1.716-1.715 0-.994-.723-1.716-1.716-1.716z" fill="#69692C"/></svg>