<svg width="44" height="44" fill="none" xmlns="http://www.w3.org/2000/svg"><path fill-rule="evenodd" clip-rule="evenodd" d="M15.625 3h9.836v2.714h-1.788v2.109c3.896.755 7.308 2.893 9.715 5.89l1.689-.986-.347-.608 2.324-1.357 2.892 5.07-2.323 1.356-.31-.544-1.599.934a16.85 16.85 0 011.372 6.684C37.086 33.506 29.679 41 20.543 41S4 33.506 4 24.262C4 16.1 9.773 9.303 17.413 7.822V5.715h-1.788V3zm2.682 4.675a16.5 16.5 0 014.471 0v-1.96h-4.47v1.96zm15.63 6.762l1.587-.927 1.341 2.35-1.532.896a16.79 16.79 0 00-1.396-2.32zm-1.33 9.373c-.23-6.386-5.305-11.522-11.617-11.754v-.008h-.894v.008c-6.312.232-11.387 5.368-11.617 11.754h-.008v.904h.008c.23 6.386 5.305 11.522 11.617 11.754v.008h.894v-.008c6.312-.233 11.387-5.368 11.617-11.754h.008v-.905h-.008zm-.895 0h-1.78v.904h1.78c-.23 5.887-4.904 10.617-10.722 10.849v-1.801h-.894v1.8c-5.818-.231-10.493-4.961-10.722-10.848h1.78v-.904h-1.78c.229-5.887 4.904-10.617 10.722-10.849v1.8h.894v-1.8c5.818.232 10.493 4.962 10.722 10.848zm-10.722.904v-7.238h-.894v7.238h.894z" fill="#69692C"/></svg>