<svg width="37" height="22" fill="none" xmlns="http://www.w3.org/2000/svg"><path d="M36.804 19.401a2.43 2.43 0 00-.126-.234c-.642-1.125-1.868-2.506-3.68-4.143l-.037-.037-.02-.019-.019-.019h-.02c-.821-.762-1.342-1.274-1.56-1.537-.398-.5-.488-1.006-.27-1.518.154-.388.733-1.206 1.734-2.455.527-.663.944-1.194 1.252-1.594 2.222-2.874 3.185-4.71 2.89-5.51l-.115-.187c-.077-.113-.276-.216-.597-.31-.321-.093-.732-.109-1.233-.046l-5.548.037c-.09-.03-.218-.028-.385.01l-.25.056-.098.047-.076.056a.847.847 0 00-.212.197 1.253 1.253 0 00-.192.328A30.25 30.25 0 0126.18 6.74a39.825 39.825 0 01-1.31 2.015c-.398.569-.732.987-1.002 1.256s-.513.484-.732.646c-.218.163-.385.232-.5.207-.116-.026-.225-.05-.328-.075a1.26 1.26 0 01-.433-.46 2.014 2.014 0 01-.222-.73 7.862 7.862 0 01-.067-.76c-.006-.212-.004-.512.01-.9.013-.387.019-.65.019-.787 0-.475.01-.99.028-1.546.02-.556.035-.997.049-1.321.013-.325.019-.67.019-1.032s-.023-.646-.068-.852a2.866 2.866 0 00-.201-.6 1.019 1.019 0 00-.395-.45 2.26 2.26 0 00-.646-.253c-.68-.15-1.547-.231-2.6-.244-2.39-.025-3.924.125-4.605.45-.27.138-.514.325-.732.562-.231.275-.263.425-.096.45.77.112 1.316.381 1.637.806l.116.225c.09.163.18.45.27.862.09.413.147.869.173 1.368.064.913.064 1.694 0 2.343a26.97 26.97 0 01-.183 1.519c-.058.362-.145.656-.26.88a3.688 3.688 0 01-.232.413.328.328 0 01-.096.094 1.48 1.48 0 01-.52.093c-.18 0-.398-.087-.655-.262a4.573 4.573 0 01-.8-.722c-.275-.306-.587-.734-.934-1.284-.346-.55-.706-1.2-1.078-1.949l-.309-.544c-.192-.35-.455-.859-.79-1.527a29.06 29.06 0 01-.885-1.94 1.24 1.24 0 00-.463-.6l-.096-.057a1.33 1.33 0 00-.308-.159 2.088 2.088 0 00-.443-.122l-5.279.038c-.54 0-.905.119-1.098.356l-.077.112c-.039.063-.058.163-.058.3 0 .138.039.307.116.506A61.14 61.14 0 002.63 8.164c.905 1.637 1.692 2.955 2.36 3.954a46.73 46.73 0 002.041 2.83c.694.888 1.153 1.456 1.378 1.706.224.25.401.438.53.563l.481.45c.308.3.761.659 1.358 1.077.598.419 1.259.831 1.985 1.238.725.405 1.57.736 2.533.993a9.02 9.02 0 002.813.31h2.215c.45-.038.79-.176 1.021-.413l.077-.094c.051-.075.1-.19.144-.347.045-.156.068-.328.068-.515a6.015 6.015 0 01.125-1.452c.096-.431.205-.756.327-.975a2.4 2.4 0 01.414-.553c.154-.15.264-.24.328-.272.064-.031.116-.052.154-.065.308-.1.671-.003 1.089.29.417.294.809.657 1.175 1.088.366.431.806.915 1.32 1.452.513.538.963.937 1.348 1.2l.385.225c.257.15.591.287 1.002.412.41.125.77.156 1.079.094l4.931-.075c.488 0 .868-.079 1.137-.234.27-.157.43-.329.481-.516.052-.187.055-.4.01-.637a2.302 2.302 0 00-.135-.497z" fill="#fff"/></svg>