<svg width="100" height="100" viewBox="0 0 100 100" fill="none" xmlns="http://www.w3.org/2000/svg">
<rect width="100" height="100" fill="#0B0B0B"/>
<path fill-rule="evenodd" clip-rule="evenodd" d="M11.7179 33.3754C10.8196 35.0428 9.95908 37.2509 9.40049 40.1137C10.9781 40.837 12.4954 41.469 13.9598 42.002C19.7345 44.1263 24.4976 44.7582 28.2341 43.8902C31.8801 43.0451 34.5749 40.7457 36.3186 36.992C36.4998 36.6037 36.6734 36.1925 36.8395 35.7585C36.4168 35.0733 35.9035 34.4109 35.292 33.7713C35.1864 36.3829 33.2539 40.9741 26.4602 40.9741C25.2676 40.9665 24.1202 40.6695 23.1011 40.1442C20.7384 40.3041 18.3682 39.6264 16.3527 38.393C14.3599 37.1747 12.6992 35.4083 11.7179 33.3754Z" fill="white"/>
<path fill-rule="evenodd" clip-rule="evenodd" d="M16.1416 27.3982C16.2171 27.9845 15.9529 28.5708 15.4396 28.8753C15.3339 28.9438 14.0506 29.7814 12.6391 31.86C13.3939 34.0071 15.0395 35.903 17.0927 37.1517C18.3231 37.9055 19.6894 38.4232 21.101 38.6212C20.3612 37.8369 19.7875 36.8852 19.4403 35.8116C18.6402 33.8777 18.2778 31.4108 18.3458 29.2941C17.5381 28.7992 16.8059 28.1596 16.1416 27.3982Z" fill="white"/>
<path fill-rule="evenodd" clip-rule="evenodd" d="M26.5121 38.1039C31.3129 38.1039 32.2037 35.203 32.3697 34.0761C31.2601 32.8503 29.9467 31.8376 28.4822 31.0838C27.9161 32.4391 27.3499 35.1345 26.3082 35.1116C25.0778 35.1116 25.5685 31.9747 25.8327 29.7514C24.2399 29.0281 22.6774 28.4418 21.4696 28.0382C21.0771 30.6041 21.4696 33.2386 22.5868 35.5761C23.2813 37.1293 24.8212 38.1191 26.5121 38.1039Z" fill="white"/>
<path fill-rule="evenodd" clip-rule="evenodd" d="M50.0022 87.6169C49.0511 89.49 48.1754 90.6549 46.2883 93C46.8695 90.594 48.0924 84.0384 46.1071 74.8407C45.1032 70.1658 45.9788 69.0693 47.9565 68.8409C48.5227 68.7724 49.3605 67.2724 49.9946 66.039V66.0771L50.0022 66.039C50.6363 67.2724 51.4741 68.7724 52.0478 68.8409C54.018 69.0693 54.8936 70.1658 53.8897 74.8407C51.9044 84.0384 53.1273 90.594 53.7085 93C51.8214 90.6549 50.9457 89.49 50.0022 87.6169Z" fill="white"/>
<path fill-rule="evenodd" clip-rule="evenodd" d="M38.4313 59.7879C38.7257 56.788 38.6955 53.0039 38.8163 50.0801C37.5481 50.1105 35.6459 50.4608 34.6797 51.0166C34.808 53.415 35.4044 55.9961 36.8763 58.8514C38.0162 61.0442 38.3105 60.9833 38.4313 59.7879Z" fill="white"/>
<path fill-rule="evenodd" clip-rule="evenodd" d="M43.8822 74.0494C42.9764 73.1357 42.1989 71.8109 41.3761 70.4023C40.8628 69.5267 40.3344 68.6282 39.7456 67.7602C40.7043 67.4405 41.7686 66.9684 42.7952 66.3212C43.8596 65.6512 44.8786 64.7832 45.6939 63.6715C47.264 63.1386 48.5095 62.6513 49.4304 62.2173L49.7474 62.065L48.7888 63.6792C48.4264 64.2959 47.5206 65.8568 46.9696 66.4278C43.7614 67.5166 43.3085 70.783 43.8822 74.0494Z" fill="white"/>
<path fill-rule="evenodd" clip-rule="evenodd" d="M18.3158 52.5237C16.8891 52.0517 15.5983 51.2446 14.534 50.171C14.9643 56.0262 18.58 58.5768 23.0865 61.7595C25.5624 63.3889 28.0082 63.8381 30.1067 65.9548C26.1588 58.0439 21.0861 58.7291 18.3158 52.5237Z" fill="white"/>
<path fill-rule="evenodd" clip-rule="evenodd" d="M31.8031 65.9478C41.3067 74.6734 39.9706 82.0893 45.0131 84.5943C45.0508 81.8152 44.7791 79.0209 44.1374 76.4626C42.3182 75.5413 41.1407 73.5313 39.8725 71.3537C39.0724 69.9908 38.2269 68.5517 37.155 67.3259C37.691 66.8919 38.3779 66.0924 39.48 65.3006C35.1396 63.7778 32.2862 62.3464 25.6133 55.5395C23.1072 54.3517 22.4202 54.3517 23.5525 55.5395C26.6399 58.0369 29.3876 61.5088 31.8031 65.9478Z" fill="white"/>
<path fill-rule="evenodd" clip-rule="evenodd" d="M38.5753 18.5354C42.4477 16.8604 46.1012 16.0152 50.0039 16C53.8989 16.0152 57.5524 16.8604 61.4324 18.5354C55.1671 19.2131 52.3666 20.4313 50.0039 22.6241V22.6165L49.9963 22.6241C47.6412 20.4313 44.8406 19.2131 38.5753 18.5354Z" fill="white"/>
<path fill-rule="evenodd" clip-rule="evenodd" d="M88.282 33.3754C89.1803 35.0428 90.0409 37.2509 90.5994 40.1137C89.0218 40.837 87.5045 41.469 86.0401 42.002C80.2655 44.1263 75.5099 44.7582 71.7733 43.8902C68.1198 43.0451 65.425 40.7457 63.6813 36.992C63.5001 36.6037 63.3265 36.1925 63.168 35.7585C63.5832 35.0733 64.0965 34.4109 64.7079 33.7713C64.8136 36.3829 66.7536 40.9741 73.5397 40.9741C74.7399 40.9665 75.8798 40.6695 76.8988 40.1442C79.2615 40.3041 81.6318 39.6264 83.6548 38.393C85.6401 37.1747 87.3007 35.4083 88.282 33.3754Z" fill="white"/>
<path fill-rule="evenodd" clip-rule="evenodd" d="M83.8591 27.3982C83.7836 27.9845 84.0553 28.5708 84.5611 28.8753C84.6668 28.9438 85.95 29.7814 87.3616 31.86C86.6067 34.0071 84.9612 35.903 82.908 37.1517C81.6851 37.9055 80.3112 38.4232 78.8997 38.6212C79.6394 37.8369 80.2131 36.8852 80.5679 35.8116C81.3605 33.8777 81.7228 31.4108 81.6549 29.2941C82.4626 28.7992 83.1948 28.1596 83.8591 27.3982Z" fill="white"/>
<path fill-rule="evenodd" clip-rule="evenodd" d="M73.4865 38.1039C68.6856 38.1039 67.7949 35.203 67.6288 34.0761C68.7385 32.8503 70.0519 31.8376 71.5163 31.0838C72.0825 32.4391 72.6486 35.1345 73.6979 35.1116C74.9207 35.1116 74.4301 31.9747 74.1659 29.7514C75.7586 29.0281 77.3287 28.4418 78.5365 28.0382C78.9215 30.6041 78.5289 33.2386 77.4118 35.5761C76.7173 37.1293 75.1774 38.1191 73.4865 38.1039Z" fill="white"/>
<path fill-rule="evenodd" clip-rule="evenodd" d="M84.5158 49.0603C82.3795 49.639 80.1754 49.9207 77.9561 49.8826C75.2311 49.8979 72.5136 49.5324 69.8867 48.7938C67.4334 48.04 64.7989 47.8954 62.4891 46.7609C60.6623 46.1213 58.9639 45.596 57.3712 45.1848C57.3334 44.4082 57.2579 43.6392 57.1447 42.8778C56.9937 41.888 56.7748 40.8905 56.4955 39.8855C56.3899 39.4972 55.9973 39.2764 55.6124 39.383C55.318 39.4667 55.1217 39.7256 55.0915 40.0149V40.0302C55.084 40.1368 55.0689 40.2357 55.0538 40.3271C54.8575 41.5606 54.2914 42.6113 53.5214 43.3194C53.076 43.7382 52.5552 44.0351 51.9966 44.1798C51.3248 44.1112 50.653 44.0656 50.0038 44.0503C49.347 44.0656 48.6828 44.1112 48.0034 44.1798C47.4448 44.0351 46.924 43.7382 46.4786 43.3194C45.7086 42.6113 45.1425 41.5606 44.9462 40.3271C44.9387 40.2357 44.9236 40.1368 44.9085 40.0302V40.0149C44.8783 39.7256 44.682 39.4667 44.3876 39.383C44.0027 39.2764 43.6101 39.4972 43.5045 39.8855C43.2252 40.8905 43.0063 41.888 42.8553 42.8778C42.7421 43.6392 42.6666 44.4082 42.6288 45.1848C41.0361 45.596 39.3452 46.1213 37.5109 46.7609C35.201 47.8954 32.5666 48.04 30.1133 48.7938C27.4864 49.5324 24.7689 49.8979 22.0439 49.8826C19.8322 49.9207 17.6205 49.639 15.4842 49.0603C11.0004 47.6898 9.48311 44.9335 9 42.7864C9.04529 42.3753 9.09813 41.9793 9.15852 41.5834C10.6531 42.2687 12.0949 42.8549 13.4687 43.3651C19.5151 45.5883 24.5425 46.2355 28.5508 45.3066C32.6496 44.3549 35.6766 41.789 37.6166 37.6013C37.8581 37.0683 38.0846 36.5201 38.296 35.9567V35.9491L38.3035 35.9339V35.9186L38.3111 35.911V35.8958L38.3186 35.8882V35.8653L38.3262 35.8577V35.8349L38.3337 35.8196V35.7968L38.3412 35.7892V35.7283L38.3488 35.6978V35.6598L38.3412 35.6445V35.576L38.3337 35.5608V35.5379L38.3262 35.5227V35.5075L38.3186 35.4922V35.4694H38.3111V35.4542L38.296 35.4237V35.4161L38.2884 35.4085V35.3933L38.2809 35.3857V35.378L38.2733 35.3704V35.3552H38.2658V35.34L38.2582 35.3324H38.2507V35.3171L38.2356 35.3019C37.3901 33.8248 36.1522 32.4314 34.5292 31.1218C30.9965 28.2742 25.5766 26.0433 21.2438 24.7718C18.481 23.546 16.3146 22.244 14.7596 20.8658C15.8994 20.1425 18.949 18.6959 24.9878 18.6959C26.8901 18.673 28.7848 19.0156 30.5662 19.7009C34.1971 21.2389 47.3995 23.2186 48.6828 26.9722C49.1357 28.5788 49.5811 29.5229 50.0038 29.9264C50.4189 29.5229 50.8643 28.5788 51.3172 26.9722C52.608 23.2186 65.8029 21.2389 69.4338 19.7009C71.2152 19.0156 73.1099 18.673 75.0121 18.6959C81.051 18.6959 84.1082 20.1425 85.2404 20.8658C83.6854 22.244 81.5266 23.546 78.7562 24.7718C74.4234 26.0433 69.0035 28.2742 65.4783 31.1218C63.8478 32.4314 62.6099 33.8248 61.7644 35.3019L61.7493 35.3171V35.3324H61.7418V35.34L61.7267 35.3704V35.378L61.7191 35.3857V35.3933L61.7116 35.4009V35.4085L61.704 35.4161V35.4237L61.6965 35.4389V35.4542H61.6889V35.4694L61.6814 35.4846V35.4922L61.6738 35.5075V35.5379L61.6663 35.5532V35.576L61.6587 35.5912V35.7511L61.6663 35.7816V35.8196L61.6738 35.8349V35.8577L61.6814 35.8653V35.8882L61.6889 35.8958V35.9034L61.6965 35.911V35.9262L61.704 35.9339V35.9491L61.7116 35.9567C61.9154 36.5201 62.1419 37.0683 62.3834 37.6013C64.3234 41.789 67.3504 44.3549 71.4492 45.3066C75.4575 46.2355 80.4924 45.5883 86.5312 43.3651C87.9051 42.8549 89.3469 42.2687 90.849 41.5834C90.9019 41.9793 90.9547 42.3753 91 42.7864C90.5169 44.9335 88.9996 47.6898 84.5158 49.0603Z" fill="white"/>
<path fill-rule="evenodd" clip-rule="evenodd" d="M61.5673 59.7879C61.2729 56.788 61.3031 53.0039 61.1898 50.0801C62.458 50.1105 64.3602 50.4608 65.3189 51.0166C65.1906 53.415 64.5942 55.9961 63.1223 58.8514C61.99 61.0442 61.688 60.9833 61.5673 59.7879Z" fill="white"/>
<path fill-rule="evenodd" clip-rule="evenodd" d="M56.1182 74.0494C57.024 73.1357 57.8015 71.8109 58.6243 70.4023C59.1376 69.5267 59.666 68.6282 60.2548 67.7602C59.2962 67.4405 58.2318 66.9684 57.2052 66.3212C56.1484 65.6512 55.1218 64.7832 54.3066 63.6715C52.7365 63.1386 51.4909 62.6513 50.5776 62.2173L50.2605 62.065L51.2116 63.6792C51.5815 64.2959 52.4798 65.8568 53.0308 66.4278C56.239 67.5166 56.6995 70.783 56.1182 74.0494Z" fill="white"/>
<path fill-rule="evenodd" clip-rule="evenodd" d="M81.6856 52.5237C83.1123 52.0517 84.4107 51.2446 85.4675 50.171C85.0372 56.0262 81.4214 58.5768 76.9149 61.7595C74.439 63.3889 71.9933 63.8381 69.8948 65.9548C73.8427 58.0439 78.9153 58.7291 81.6856 52.5237Z" fill="white"/>
<path fill-rule="evenodd" clip-rule="evenodd" d="M68.1956 65.9478C58.692 74.6734 60.0281 82.0893 54.9932 84.5943C54.9479 81.8152 55.2196 79.0209 55.8613 76.4626C57.6805 75.5413 58.858 73.5313 60.1338 71.3537C60.9339 69.9908 61.7718 68.5517 62.8437 67.3259C62.3153 66.8919 61.6208 66.0924 60.5187 65.3006C64.8592 63.7778 67.7201 62.3464 74.3854 55.5395C76.8916 54.3517 77.5785 54.3517 76.4462 55.5395C73.3664 58.0369 70.6112 61.5088 68.1956 65.9478Z" fill="white"/>
</svg>
