<svg width="44" height="44" viewBox="0 0 44 44" fill="none" xmlns="http://www.w3.org/2000/svg">
<path fill-rule="evenodd" clip-rule="evenodd" d="M7.71644 8C7.22148 8 6.82041 8.4055 6.82041 8.9058V10.4311H38.1796V8.9058C38.1796 8.4055 37.7785 8 37.2836 8H7.71644ZM5.91536 11.3998C5.36024 11.3998 4.9102 11.8605 4.9102 12.4287V13.9929H40.0898V12.4287C40.0898 11.8605 39.6398 11.3998 39.0846 11.3998H5.91536ZM4.11429 15.0928C3.49888 15.0928 3 15.6007 3 16.2273V34.8655C3 35.4921 3.49888 36 4.11429 36H40.8857C41.5011 36 42 35.4921 42 34.8655V16.2273C42 15.6007 41.5011 15.0928 40.8857 15.0928H4.11429ZM28.6829 25.2667C28.6829 28.6172 25.9147 31.3333 22.5 31.3333C19.0853 31.3333 16.3171 28.6172 16.3171 25.2667C16.3171 21.9161 19.0853 19.2 22.5 19.2C25.9147 19.2 28.6829 21.9161 28.6829 25.2667ZM29.6341 25.2667C29.6341 29.1327 26.4401 32.2667 22.5 32.2667C18.5599 32.2667 15.3659 29.1327 15.3659 25.2667C15.3659 21.4007 18.5599 18.2667 22.5 18.2667C26.4401 18.2667 29.6341 21.4007 29.6341 25.2667ZM37.2439 18.2667H38.1951V32.2667H37.2439V18.2667ZM7.7561 18.2667H6.80488V32.2667H7.7561V18.2667Z" fill="#69692C"/>
</svg>
