<svg width="16" height="18" viewBox="0 0 16 18" fill="none" xmlns="http://www.w3.org/2000/svg">
<path d="M0.382334 0.5C0.152933 0.574322 0 0.722964 0 0.945931V4.29043C0 4.43908 0.0764661 4.58772 0.2294 4.66204L7.91694 9.87016C8.06988 9.94448 8.22281 9.94448 8.37574 9.87016L15.5 4.66204C15.6529 4.58772 15.7294 4.43908 15.7294 4.29043V0.945931C15.7294 0.648642 15.3471 0.425676 15.0412 0.574321L8.14634 5.63379L0.688199 0.57432C0.611732 0.499998 0.4588 0.5 0.382334 0.5ZM0.382334 6.49975C0.152933 6.57407 0 6.72272 0 6.94568V10.2902C0 10.4388 0.0764661 10.5875 0.2294 10.6618L7.91694 15.9442C8.06988 16.0186 8.22281 16.0186 8.37574 15.9442L15.5 10.6618C15.6529 10.5875 15.7294 10.4388 15.7294 10.2902V6.94568C15.7294 6.64839 15.3471 6.42543 15.0412 6.57407L8.14634 11.6335L0.688199 6.57407C0.611732 6.49975 0.4588 6.42543 0.382334 6.49975Z" fill="#69692C"/>
</svg>
