<svg width="37" height="37" viewBox="0 0 37 37" fill="none" xmlns="http://www.w3.org/2000/svg">
<path d="M27.0058 3.32845L23.0414 3.32227C18.5874 3.32227 15.7091 6.19556 15.7091 10.6427V14.018H11.723C11.3785 14.018 11.0996 14.2897 11.0996 14.6248V19.5151C11.0996 19.8503 11.3789 20.1217 11.723 20.1217H15.7091V32.4615C15.7091 32.7966 15.988 33.068 16.3325 33.068H21.5332C21.8776 33.068 22.1565 32.7963 22.1565 32.4615V20.1217H26.8172C27.1617 20.1217 27.4406 19.8503 27.4406 19.5151L27.4425 14.6248C27.4425 14.4639 27.3767 14.3098 27.2599 14.1959C27.1432 14.082 26.9842 14.018 26.8188 14.018H22.1565V11.1567C22.1565 9.78152 22.4934 9.08339 24.3345 9.08339L27.0052 9.08246C27.3493 9.08246 27.6282 8.81076 27.6282 8.47593V3.93499C27.6282 3.60047 27.3496 3.32907 27.0058 3.32845Z" fill="white"/>
</svg>
