<svg width="44" height="44" viewBox="0 0 44 44" fill="none" xmlns="http://www.w3.org/2000/svg">
<path d="M12.1292 2C12.0527 2 11.8998 2.07432 11.8233 2.14865C11.7469 2.22297 11.7469 2.22297 11.6704 2.29729L10.9057 4.30399L8.6882 4.37831C8.30587 4.37831 8.15293 4.97289 8.4588 5.19586L10.1411 6.53366L9.6058 8.54036C9.52933 8.91197 9.98813 9.20926 10.294 9.06061L12.1292 7.87146L13.9644 9.06061C14.2703 9.28358 14.8055 8.91197 14.6526 8.54036L14.0409 6.53366L15.7231 5.19586C15.9525 4.97289 15.7996 4.45263 15.4937 4.45263L13.3527 4.37831L12.588 2.37161C12.4351 2.14864 12.2821 2 12.1292 2ZM22.5287 2C22.4522 2 22.2993 2.07432 22.2228 2.14865C22.1463 2.22297 22.1463 2.22297 22.0699 2.29729L21.3052 4.30399L19.1641 4.37831C18.7818 4.37831 18.5524 4.97289 18.8583 5.19586L20.5405 6.53366L20.0053 8.54036C19.9288 8.91197 20.3876 9.20926 20.6935 9.06061L22.5287 7.87146L24.3639 9.06061C24.6697 9.28358 25.1285 8.91197 25.0521 8.54036L24.5168 6.53366L26.1991 5.19586C26.5049 4.97289 26.2755 4.45263 25.9697 4.45263L23.8286 4.37831L23.0639 2.37161C22.911 2.14864 22.7581 2 22.5287 2ZM32.2137 2C32.1372 2 31.9843 2.07432 31.9078 2.14865C31.8313 2.22297 31.8313 2.22297 31.7549 2.29729L30.9902 4.30399L28.8491 4.37831C28.4668 4.37831 28.2374 4.97289 28.5433 5.19586L30.2255 6.53366L29.6903 8.54036C29.6138 8.91197 30.0726 9.20926 30.3785 9.06061L32.2137 7.87146L34.0489 9.06061C34.3548 9.28358 34.89 8.91197 34.7371 8.54036L34.1254 6.53366L35.8076 5.19586C36.037 4.97289 35.8841 4.45263 35.5782 4.45263L33.4371 4.37831L32.6725 2.37161C32.596 2.14864 32.3666 2 32.2137 2ZM8.38233 10.8443C8.15293 10.8443 8 11.0673 8 11.2903V14.6348C8 14.8577 8.2294 15.0807 8.4588 15.0807H35.7574C35.9868 15.0807 36.2162 14.8577 36.2162 14.6348V11.2903C36.2162 11.0673 35.9868 10.8443 35.7574 10.8443H8.38233ZM8.38233 16.6415C8.15293 16.7158 8 16.8644 8 17.0874V21.1751C8 21.3238 8.07647 21.4724 8.2294 21.5467L21.9169 29.7965C22.0699 29.8708 22.2228 29.8708 22.3757 29.7965L36.0633 21.5467C36.2162 21.4724 36.2927 21.3238 36.2927 21.1751V17.0874C36.2927 16.8644 36.0633 16.6415 35.8339 16.6415H8.4588C8.38233 16.6415 8.38233 16.6415 8.38233 16.6415ZM8.38233 23.4584C8.15293 23.5327 8 23.6813 8 23.9043V27.2488C8 27.3974 8.07647 27.5461 8.2294 27.6204L21.9169 35.8702C22.0699 35.9445 22.2228 35.9445 22.3757 35.8702L36.0633 27.6204C36.2162 27.5461 36.2927 27.3974 36.2927 27.2488V23.9043C36.2927 23.607 35.9104 23.384 35.6045 23.5327L22.1463 31.6338L8.6882 23.5327C8.61173 23.4584 8.4588 23.4584 8.38233 23.4584ZM8.38233 29.4581C8.15293 29.5324 8 29.6811 8 29.9041V33.2486C8 33.3972 8.07647 33.5458 8.2294 33.6202L21.9169 41.9443C22.0699 42.0186 22.2228 42.0186 22.3757 41.9443L36.0633 33.6202C36.2162 33.5458 36.2927 33.3972 36.2927 33.2486V29.9041C36.2927 29.6068 35.9104 29.3838 35.6045 29.5324L22.1463 37.6336L8.6882 29.5324C8.61173 29.4581 8.4588 29.3838 8.38233 29.4581Z" fill="#69692C"/>
</svg>
