<svg width="35" height="36" viewBox="0 0 35 36" fill="none" xmlns="http://www.w3.org/2000/svg">
<g clip-path="url(#clip0)">
<path d="M17.4531 8.75735C18.7355 8.75735 19.9397 8.99194 21.0657 9.46111C22.1917 9.93027 23.1769 10.5871 24.0214 11.4316C24.866 12.2761 25.5228 13.2614 25.992 14.3874C26.4611 15.5134 26.6957 16.7176 26.6957 18C26.6957 19.2824 26.4611 20.4709 25.992 21.5657C25.5228 22.6604 24.866 23.6456 24.0214 24.5214C23.1769 25.3972 22.1917 26.054 21.0657 26.4919C19.9397 26.9298 18.7355 27.1801 17.4531 27.2426C16.1707 27.3052 14.9665 27.0549 13.8405 26.4919C12.7145 25.9289 11.7449 25.2721 10.9316 24.5214C10.1184 23.7708 9.46157 22.7855 8.96113 21.5657C8.46068 20.3458 8.21046 19.1573 8.21046 18C8.21046 16.8427 8.46068 15.6385 8.96113 14.3874C9.46157 13.1363 10.1184 12.151 10.9316 11.4316C11.7449 10.7122 12.7145 10.0554 13.8405 9.46111C14.9665 8.86682 16.1707 8.63224 17.4531 8.75735ZM17.4531 23.9584C18.2663 23.9584 19.0326 23.802 19.752 23.4893C20.4714 23.1765 21.1126 22.7542 21.6756 22.2225C22.2386 21.6908 22.6609 21.0496 22.9424 20.2989C23.2239 19.5482 23.3803 18.7819 23.4115 18C23.4428 17.218 23.2864 16.4361 22.9424 15.6541C22.5983 14.8722 22.1761 14.231 21.6756 13.7305C21.1752 13.2301 20.534 12.8078 19.752 12.4638C18.9701 12.1197 18.2038 11.9633 17.4531 11.9946C16.7024 12.0259 15.9361 12.1823 15.1542 12.4638C14.3722 12.7453 13.731 13.1675 13.2306 13.7305C12.7301 14.2935 12.3079 14.9347 11.9638 15.6541C11.6198 16.3735 11.4634 17.1555 11.4946 18C11.5259 18.8445 11.6823 19.6108 11.9638 20.2989C12.2453 20.987 12.6676 21.6282 13.2306 22.2225C13.7936 22.8168 14.4348 23.239 15.1542 23.4893C15.8735 23.7395 16.6399 23.8959 17.4531 23.9584ZM34.7185 9.22652C35 15.0755 35 20.9245 34.7185 26.7734C34.6559 27.8994 34.3901 28.9629 33.9209 29.9638C33.4517 30.9647 32.8418 31.8405 32.0912 32.5911C31.3405 33.3418 30.4491 33.9674 29.4169 34.4678C28.3847 34.9683 27.3213 35.2341 26.2265 35.2654C24.7565 35.3279 23.3021 35.3749 21.8633 35.4061C20.4245 35.4374 18.9544 35.4531 17.4531 35.4531C15.9517 35.4531 14.4973 35.4374 13.0898 35.4061C11.6823 35.3749 10.2122 35.3279 8.67962 35.2654C7.55362 35.2028 6.49017 34.937 5.48928 34.4678C4.48838 33.9986 3.6126 33.3731 2.86193 32.5911C2.11126 31.8092 1.4857 30.9334 0.985255 29.9638C0.484808 28.9942 0.218945 27.9307 0.187668 26.7734C-0.0625559 20.9245 -0.0625559 15.0755 0.187668 9.22652C0.250223 8.10052 0.516086 7.03707 0.985255 6.03617C1.45442 5.03528 2.07998 4.14386 2.86193 3.36191C3.64388 2.57996 4.51966 1.97004 5.48928 1.53215C6.45889 1.09426 7.52234 0.828397 8.67962 0.734564C14.5286 0.453062 20.3776 0.453062 26.2265 0.734564C27.3525 0.797119 28.416 1.06298 29.4169 1.53215C30.4178 2.00132 31.3092 2.61124 32.0912 3.36191C32.8731 4.11258 33.483 5.004 33.9209 6.03617C34.3588 7.06834 34.6247 8.13179 34.7185 9.22652ZM31.4343 26.5858C31.7158 20.8619 31.7158 15.1224 31.4343 9.36727C31.403 8.67916 31.231 8.02232 30.9182 7.39676C30.6055 6.7712 30.2145 6.2082 29.7453 5.70775C29.2761 5.20731 28.7131 4.80069 28.0563 4.48791C27.3995 4.17514 26.7426 4.00311 26.0858 3.97183C24.647 3.90927 23.2082 3.86236 21.7694 3.83108C20.3307 3.7998 18.8919 3.78416 17.4531 3.78416C16.0143 3.78416 14.5755 3.7998 13.1367 3.83108C11.6979 3.86236 10.2592 3.90927 8.82038 3.97183C8.13226 4.00311 7.47542 4.17514 6.84987 4.48791C6.22431 4.80069 5.67694 5.20731 5.20778 5.70775C4.73861 6.2082 4.33199 6.7712 3.98794 7.39676C3.64388 8.02232 3.47185 8.67916 3.47185 9.36727C3.19035 15.1224 3.19035 20.8775 3.47185 26.6327C3.50313 27.3208 3.67516 27.9776 3.98794 28.6032C4.30071 29.2288 4.70733 29.7761 5.20778 30.2453C5.70822 30.7145 6.25559 31.1211 6.84987 31.4651C7.44415 31.8092 8.10098 31.9812 8.82038 31.9812C14.5755 32.2627 20.3307 32.2627 26.0858 31.9812C26.7739 31.9499 27.4307 31.7779 28.0563 31.4651C28.6819 31.1523 29.2449 30.7457 29.7453 30.2453C30.2458 29.7448 30.6367 29.1818 30.9182 28.5563C31.1997 27.9307 31.3718 27.2739 31.4343 26.5858ZM26.6957 6.69301C27.2587 6.69301 27.7435 6.89632 28.1501 7.30293C28.5567 7.70954 28.7601 8.19435 28.7601 8.75735C28.7601 9.32035 28.5567 9.80516 28.1501 10.2118C27.7435 10.6184 27.2587 10.8217 26.6957 10.8217C26.1327 10.8217 25.6479 10.6184 25.2413 10.2118C24.8347 9.80516 24.6314 9.32035 24.6314 8.75735C24.6314 8.19435 24.8347 7.70954 25.2413 7.30293C25.6479 6.89632 26.1327 6.69301 26.6957 6.69301Z" fill="#80803A"/>
</g>
<defs>
<clipPath id="clip0">
<rect width="35" height="35" fill="white" transform="translate(0 0.5)"/>
</clipPath>
</defs>
</svg>
