<svg width="36" height="37" viewBox="0 0 36 37" fill="none" xmlns="http://www.w3.org/2000/svg">
<path d="M22.7591 18.6184C22.7591 21.2667 20.6128 23.4134 17.9645 23.4134C15.317 23.4134 13.17 21.2667 13.17 18.6184C13.17 15.9705 15.317 13.8239 17.9645 13.8239C20.6128 13.8239 22.7591 15.9705 22.7591 18.6184Z" fill="white"/>
<path fill-rule="evenodd" clip-rule="evenodd" d="M31.5896 9.21411C32.0168 10.3461 32.2429 11.5432 32.2593 12.7523C32.3474 14.2733 32.3482 14.7707 32.3513 18.6215V18.6742C32.3513 22.5749 32.331 23.0618 32.2624 24.5976C32.2382 25.7935 32.0129 26.9719 31.5935 28.0894C31.2232 29.0436 30.658 29.9106 29.9337 30.6344C29.2103 31.3583 28.3433 31.9231 27.3891 32.2934C26.2719 32.7128 25.0916 32.9389 23.8988 32.9623C22.3739 33.052 21.8742 33.052 17.9754 33.052C14.0767 33.052 13.5894 33.0309 12.052 32.9623C10.8569 32.9229 9.67737 32.6801 8.56333 32.2439C7.60909 31.8744 6.7414 31.3099 6.01793 30.5861C5.29368 29.8626 4.72847 28.9961 4.35816 28.0415C3.93796 26.9223 3.71265 25.744 3.68926 24.5496C3.59961 23.0236 3.59961 22.5254 3.59961 18.6262C3.59961 14.7274 3.62066 14.2406 3.68926 12.7028C3.71187 11.5104 3.93796 10.3305 4.35816 9.21411C4.72769 8.25949 5.29212 7.39257 6.01637 6.66871C6.73984 5.94486 7.60754 5.38004 8.56177 5.0105C9.67815 4.59108 10.8585 4.36461 12.0505 4.33966C13.5754 4.25195 14.0751 4.25195 17.9739 4.25195C20.4125 4.25195 21.5164 4.25936 22.3771 4.28197C22.8924 4.29522 23.3204 4.31393 23.8957 4.33966C25.0885 4.36422 26.2688 4.59108 27.386 5.0105C27.7641 5.15707 28.129 5.33443 28.4767 5.54024C29.0052 5.85325 29.494 6.23253 29.9314 6.6691C30.3001 7.03786 30.6276 7.44364 30.909 7.87904C31.1795 8.29886 31.408 8.74596 31.5896 9.21411ZM10.5833 18.6184C10.5833 22.6961 13.8864 25.9997 17.9645 25.9997C19.9221 25.9997 21.7994 25.222 23.184 23.8375C24.5677 22.4533 25.3458 20.576 25.3458 18.6184C25.3458 16.6609 24.5677 14.7832 23.184 13.399C21.7994 12.0148 19.9221 11.2372 17.9645 11.2372C13.8864 11.2372 10.5833 14.5407 10.5833 18.6184ZM23.9183 10.9643C23.9183 11.9158 24.6862 12.6853 25.6397 12.6853C26.5892 12.6853 27.3587 11.9158 27.3587 10.9643C27.3587 10.7382 27.3143 10.5145 27.2277 10.3059C27.1412 10.097 27.0149 9.90757 26.8551 9.74775C26.6953 9.58793 26.5058 9.46124 26.2969 9.37471C26.088 9.28817 25.8642 9.24374 25.6389 9.24374C25.4128 9.24374 25.1891 9.28817 24.9802 9.37471C24.7712 9.46124 24.5818 9.58793 24.422 9.74775C24.2621 9.90757 24.1358 10.097 24.0493 10.3059C23.9628 10.5145 23.9183 10.7382 23.9183 10.9643Z" fill="white"/>
</svg>
