<svg width="153" height="27" viewBox="0 0 153 27" fill="none" xmlns="http://www.w3.org/2000/svg">
<path d="M21.9467 7.6642V2.27272C19.336 1.05667 16.5552 0.708008 13.2557 0.708008C5.7808 0.708008 0.0449219 6.44814 0.0449219 13.4001C0.0449219 18.5407 3.12333 22.8734 7.64315 24.8803C12.316 26.9595 16.1726 26.3302 20.5436 24.0044L18.3241 11.3124L18.1497 11.138H13.2047L13.0474 11.3421L14.7354 20.8878C12.7668 21.3087 10.4962 20.875 8.75291 19.7227C8.35748 19.4634 7.99607 19.17 7.66441 18.8468C6.23576 17.4522 5.43214 15.5175 5.43214 13.4001C5.43214 9.22891 8.56158 5.75082 13.2557 5.75082C16.2108 5.75082 19.1659 6.27381 21.7724 7.83853L21.9467 7.6642Z" fill="url(#paint0_linear)"/>
<path d="M21.9467 7.6642V2.27272C19.336 1.05667 16.5552 0.708008 13.2557 0.708008C5.7808 0.708008 0.0449219 6.44814 0.0449219 13.4001C0.0449219 18.5407 3.12333 22.8734 7.64315 24.8803C12.316 26.9595 16.1726 26.3302 20.5436 24.0044L18.3241 11.3124L18.1497 11.138H13.2047L13.0474 11.3421L14.7354 20.8878C12.7668 21.3087 10.4962 20.875 8.75291 19.7227C8.35748 19.4634 7.99607 19.17 7.66441 18.8468C6.23576 17.4522 5.43214 15.5175 5.43214 13.4001C5.43214 9.22891 8.56158 5.75082 13.2557 5.75082C16.2108 5.75082 19.1659 6.27381 21.7724 7.83853L21.9467 7.6642Z" fill="white"/>
<path d="M33.8945 1.15463L33.7159 1.33321V14.8672C33.7159 22.07 38.6396 26.2921 44.6136 26.2921C50.5919 26.2921 55.5114 22.07 55.5114 14.8672V1.33321L55.3371 1.15463H50.7662L50.5919 1.33321V14.1613C50.5919 18.9065 47.9557 21.1941 44.6136 21.1941C41.2759 21.1941 38.6396 18.9065 38.6396 14.1613V1.33321L38.4611 1.15463H33.8945Z" fill="url(#paint1_linear)"/>
<path d="M33.8945 1.15463L33.7159 1.33321V14.8672C33.7159 22.07 38.6396 26.2921 44.6136 26.2921C50.5919 26.2921 55.5114 22.07 55.5114 14.8672V1.33321L55.3371 1.15463H50.7662L50.5919 1.33321V14.1613C50.5919 18.9065 47.9557 21.1941 44.6136 21.1941C41.2759 21.1941 38.6396 18.9065 38.6396 14.1613V1.33321L38.4611 1.15463H33.8945Z" fill="white"/>
<path d="M67.0345 1.15463L66.8601 1.33321V25.5863L67.0345 25.7649H71.6053L71.7796 25.5863C71.7796 19.0851 71.7796 12.5796 71.7796 6.07838H75.6914C77.4475 6.07838 79.042 6.73318 79.042 8.49349C79.042 10.2495 77.0265 11.725 74.2032 13.9275L75.6914 15.9216L83.0728 25.5863L83.2471 25.7649H88.8725L89.0468 25.5863L80.6109 14.3399C82.401 12.6434 84.1273 11.3508 84.1273 8.53601C84.1273 4.49666 80.9638 1.15463 75.6914 1.15463H67.0345Z" fill="url(#paint2_linear)"/>
<path d="M67.0345 1.15463L66.8601 1.33321V25.5863L67.0345 25.7649H71.6053L71.7796 25.5863C71.7796 19.0851 71.7796 12.5796 71.7796 6.07838H75.6914C77.4475 6.07838 79.042 6.73318 79.042 8.49349C79.042 10.2495 77.0265 11.725 74.2032 13.9275L75.6914 15.9216L83.0728 25.5863L83.2471 25.7649H88.8725L89.0468 25.5863L80.6109 14.3399C82.401 12.6434 84.1273 11.3508 84.1273 8.53601C84.1273 4.49666 80.9638 1.15463 75.6914 1.15463H67.0345Z" fill="white"/>
<path d="M98.167 1.15463L97.9926 1.33321V5.8998L98.167 6.07838H110.119L97.6397 25.5863L97.8141 25.7649H118.908L119.082 25.5863V21.0537L118.908 20.8411H106.429L118.908 1.33321L118.729 1.15463H98.167Z" fill="url(#paint3_linear)"/>
<path d="M98.167 1.15463L97.9926 1.33321V5.8998L98.167 6.07838H110.119L97.6397 25.5863L97.8141 25.7649H118.908L119.082 25.5863V21.0537L118.908 20.8411H106.429L118.908 1.33321L118.729 1.15463H98.167Z" fill="white"/>
<path d="M137.872 1.15463L137.694 1.33321L128.377 25.5863L128.556 25.7649H134.003L134.177 25.5863L134.368 25.0633L137.523 15.7431H137.519L140.33 7.48578L142.388 13.5193L142.392 13.5406L143.145 15.7431H143.136L145.985 24.1917L146.482 25.5863L146.657 25.7649H152.108L152.282 25.5863L142.966 1.33321L142.792 1.15463H137.872Z" fill="url(#paint4_linear)"/>
<path d="M137.872 1.15463L137.694 1.33321L128.377 25.5863L128.556 25.7649H134.003L134.177 25.5863L134.368 25.0633L137.523 15.7431H137.519L140.33 7.48578L142.388 13.5193L142.392 13.5406L143.145 15.7431H143.136L145.985 24.1917L146.482 25.5863L146.657 25.7649H152.108L152.282 25.5863L142.966 1.33321L142.792 1.15463H137.872Z" fill="white"/>
<defs>
<linearGradient id="paint0_linear" x1="121.5" y1="44.5" x2="94" y2="-33.5" gradientUnits="userSpaceOnUse">
<stop stop-color="white"/>
<stop offset="0.234781" stop-color="white"/>
<stop offset="0.284654" stop-color="#7C7C7C"/>
<stop offset="0.323867" stop-color="#A3A3A3"/>
<stop offset="0.457191" stop-color="white"/>
<stop offset="0.503486" stop-color="#C8C6C6"/>
<stop offset="0.547381" stop-color="white"/>
<stop offset="0.647261" stop-color="#9E9E9E"/>
<stop offset="0.757572" stop-color="white"/>
<stop offset="0.798829" stop-color="#A5A5A5"/>
<stop offset="0.874092" stop-color="white"/>
<stop offset="1" stop-color="white"/>
</linearGradient>
<linearGradient id="paint1_linear" x1="121.5" y1="44.5" x2="94" y2="-33.5" gradientUnits="userSpaceOnUse">
<stop stop-color="white"/>
<stop offset="0.234781" stop-color="white"/>
<stop offset="0.284654" stop-color="#7C7C7C"/>
<stop offset="0.323867" stop-color="#A3A3A3"/>
<stop offset="0.457191" stop-color="white"/>
<stop offset="0.503486" stop-color="#C8C6C6"/>
<stop offset="0.547381" stop-color="white"/>
<stop offset="0.647261" stop-color="#9E9E9E"/>
<stop offset="0.757572" stop-color="white"/>
<stop offset="0.798829" stop-color="#A5A5A5"/>
<stop offset="0.874092" stop-color="white"/>
<stop offset="1" stop-color="white"/>
</linearGradient>
<linearGradient id="paint2_linear" x1="121.5" y1="44.5" x2="94" y2="-33.5" gradientUnits="userSpaceOnUse">
<stop stop-color="white"/>
<stop offset="0.234781" stop-color="white"/>
<stop offset="0.284654" stop-color="#7C7C7C"/>
<stop offset="0.323867" stop-color="#A3A3A3"/>
<stop offset="0.457191" stop-color="white"/>
<stop offset="0.503486" stop-color="#C8C6C6"/>
<stop offset="0.547381" stop-color="white"/>
<stop offset="0.647261" stop-color="#9E9E9E"/>
<stop offset="0.757572" stop-color="white"/>
<stop offset="0.798829" stop-color="#A5A5A5"/>
<stop offset="0.874092" stop-color="white"/>
<stop offset="1" stop-color="white"/>
</linearGradient>
<linearGradient id="paint3_linear" x1="121.5" y1="44.5" x2="94" y2="-33.5" gradientUnits="userSpaceOnUse">
<stop stop-color="white"/>
<stop offset="0.234781" stop-color="white"/>
<stop offset="0.284654" stop-color="#7C7C7C"/>
<stop offset="0.323867" stop-color="#A3A3A3"/>
<stop offset="0.457191" stop-color="white"/>
<stop offset="0.503486" stop-color="#C8C6C6"/>
<stop offset="0.547381" stop-color="white"/>
<stop offset="0.647261" stop-color="#9E9E9E"/>
<stop offset="0.757572" stop-color="white"/>
<stop offset="0.798829" stop-color="#A5A5A5"/>
<stop offset="0.874092" stop-color="white"/>
<stop offset="1" stop-color="white"/>
</linearGradient>
<linearGradient id="paint4_linear" x1="121.5" y1="44.5" x2="94" y2="-33.5" gradientUnits="userSpaceOnUse">
<stop stop-color="white"/>
<stop offset="0.234781" stop-color="white"/>
<stop offset="0.284654" stop-color="#7C7C7C"/>
<stop offset="0.323867" stop-color="#A3A3A3"/>
<stop offset="0.457191" stop-color="white"/>
<stop offset="0.503486" stop-color="#C8C6C6"/>
<stop offset="0.547381" stop-color="white"/>
<stop offset="0.647261" stop-color="#9E9E9E"/>
<stop offset="0.757572" stop-color="white"/>
<stop offset="0.798829" stop-color="#A5A5A5"/>
<stop offset="0.874092" stop-color="white"/>
<stop offset="1" stop-color="white"/>
</linearGradient>
</defs>
</svg>
