<?xml version="1.0" encoding="utf-8"?>
<svg width="47" height="43" viewBox="0 0 47 43" fill="none" xmlns="http://www.w3.org/2000/svg">
<path fill-rule="evenodd" clip-rule="evenodd" d="M1.53093 9.70312C1.02495 10.6343 0.540231 11.8674 0.225586 13.4661C1.11424 13.87 1.96889 14.2229 2.79376 14.5206C6.0465 15.7069 8.72948 16.0598 10.8342 15.5751C12.8879 15.1031 14.4058 13.819 15.388 11.7228C15.4901 11.506 15.5879 11.2763 15.6814 11.034C15.4433 10.6513 15.1542 10.2814 14.8098 9.92423C14.7502 11.3826 13.6617 13.9466 9.83499 13.9466C9.16318 13.9423 8.51689 13.7765 7.94287 13.4831C6.61201 13.5724 5.2769 13.194 4.14163 12.5052C3.01912 11.8248 2.08369 10.8384 1.53093 9.70312Z" fill="url(#paint0_linear)"/>
<path fill-rule="evenodd" clip-rule="evenodd" d="M1.53093 9.70312C1.02495 10.6343 0.540231 11.8674 0.225586 13.4661C1.11424 13.87 1.96889 14.2229 2.79376 14.5206C6.0465 15.7069 8.72948 16.0598 10.8342 15.5751C12.8879 15.1031 14.4058 13.819 15.388 11.7228C15.4901 11.506 15.5879 11.2763 15.6814 11.034C15.4433 10.6513 15.1542 10.2814 14.8098 9.92423C14.7502 11.3826 13.6617 13.9466 9.83499 13.9466C9.16318 13.9423 8.51689 13.7765 7.94287 13.4831C6.61201 13.5724 5.2769 13.194 4.14163 12.5052C3.01912 11.8248 2.08369 10.8384 1.53093 9.70312Z" fill="white"/>
<path fill-rule="evenodd" clip-rule="evenodd" d="M4.02271 6.36523C4.06523 6.69263 3.91641 7.02003 3.62728 7.19011C3.56775 7.22838 2.84492 7.69609 2.0498 8.85688C2.475 10.0559 3.40192 11.1147 4.55845 11.812C5.25152 12.2329 6.02112 12.5221 6.81624 12.6326C6.39955 12.1947 6.0764 11.6632 5.88081 11.0636C5.4301 9.98364 5.22601 8.60601 5.26428 7.42397C4.80932 7.14759 4.39688 6.79043 4.02271 6.36523Z" fill="url(#paint1_linear)"/>
<path fill-rule="evenodd" clip-rule="evenodd" d="M4.02271 6.36523C4.06523 6.69263 3.91641 7.02003 3.62728 7.19011C3.56775 7.22838 2.84492 7.69609 2.0498 8.85688C2.475 10.0559 3.40192 11.1147 4.55845 11.812C5.25152 12.2329 6.02112 12.5221 6.81624 12.6326C6.39955 12.1947 6.0764 11.6632 5.88081 11.0636C5.4301 9.98364 5.22601 8.60601 5.26428 7.42397C4.80932 7.14759 4.39688 6.79043 4.02271 6.36523Z" fill="white"/>
<path fill-rule="evenodd" clip-rule="evenodd" d="M9.86418 12.3437C12.5684 12.3437 13.0702 10.7237 13.1637 10.0945C12.5387 9.40989 11.7988 8.84438 10.9739 8.42344C10.655 9.18028 10.3362 10.6855 9.74938 10.6727C9.05631 10.6727 9.33269 8.92091 9.48151 7.67934C8.58435 7.27541 7.70419 6.94801 7.02388 6.72266C6.80278 8.15556 7.02388 9.62674 7.65317 10.9321C8.04435 11.7995 8.91175 12.3522 9.86418 12.3437Z" fill="url(#paint2_linear)"/>
<path fill-rule="evenodd" clip-rule="evenodd" d="M9.86418 12.3437C12.5684 12.3437 13.0702 10.7237 13.1637 10.0945C12.5387 9.40989 11.7988 8.84438 10.9739 8.42344C10.655 9.18028 10.3362 10.6855 9.74938 10.6727C9.05631 10.6727 9.33269 8.92091 9.48151 7.67934C8.58435 7.27541 7.70419 6.94801 7.02388 6.72266C6.80278 8.15556 7.02388 9.62674 7.65317 10.9321C8.04435 11.7995 8.91175 12.3522 9.86418 12.3437Z" fill="white"/>
<path fill-rule="evenodd" clip-rule="evenodd" d="M23.0957 39.9939C22.5599 41.0398 22.0667 41.6904 21.0037 43C21.3311 41.6564 22.0199 37.9955 20.9017 32.8591C20.3362 30.2484 20.8294 29.6361 21.9434 29.5086C22.2623 29.4703 22.7343 28.6327 23.0914 27.9438V27.9651L23.0957 27.9438C23.4529 28.6327 23.9248 29.4703 24.248 29.5086C25.3577 29.6361 25.851 30.2484 25.2854 32.8591C24.1672 37.9955 24.856 41.6564 25.1834 43C24.1204 41.6904 23.6272 41.0398 23.0957 39.9939Z" fill="url(#paint3_linear)"/>
<path fill-rule="evenodd" clip-rule="evenodd" d="M23.0957 39.9939C22.5599 41.0398 22.0667 41.6904 21.0037 43C21.3311 41.6564 22.0199 37.9955 20.9017 32.8591C20.3362 30.2484 20.8294 29.6361 21.9434 29.5086C22.2623 29.4703 22.7343 28.6327 23.0914 27.9438V27.9651L23.0957 27.9438C23.4529 28.6327 23.9248 29.4703 24.248 29.5086C25.3577 29.6361 25.851 30.2484 25.2854 32.8591C24.1672 37.9955 24.856 41.6564 25.1834 43C24.1204 41.6904 23.6272 41.0398 23.0957 39.9939Z" fill="white"/>
<path fill-rule="evenodd" clip-rule="evenodd" d="M16.5781 24.453C16.7439 22.7777 16.7269 20.6645 16.7949 19.0317C16.0806 19.0487 15.0091 19.2443 14.4648 19.5547C14.5371 20.8941 14.873 22.3355 15.7022 23.93C16.3442 25.1545 16.51 25.1205 16.5781 24.453Z" fill="url(#paint4_linear)"/>
<path fill-rule="evenodd" clip-rule="evenodd" d="M16.5781 24.453C16.7439 22.7777 16.7269 20.6645 16.7949 19.0317C16.0806 19.0487 15.0091 19.2443 14.4648 19.5547C14.5371 20.8941 14.873 22.3355 15.7022 23.93C16.3442 25.1545 16.51 25.1205 16.5781 24.453Z" fill="white"/>
<path fill-rule="evenodd" clip-rule="evenodd" d="M19.6484 32.4172C19.1382 31.9069 18.7002 31.1671 18.2368 30.3805C17.9476 29.8915 17.65 29.3898 17.3184 28.9051C17.8584 28.7265 18.4579 28.4629 19.0361 28.1014C19.6357 27.7273 20.2097 27.2426 20.6689 26.6218C21.5533 26.3241 22.2549 26.052 22.7736 25.8096L22.9522 25.7246L22.4122 26.626C22.2081 26.9704 21.6979 27.8421 21.3875 28.161C19.5804 28.769 19.3253 30.5931 19.6484 32.4172Z" fill="url(#paint5_linear)"/>
<path fill-rule="evenodd" clip-rule="evenodd" d="M19.6484 32.4172C19.1382 31.9069 18.7002 31.1671 18.2368 30.3805C17.9476 29.8915 17.65 29.3898 17.3184 28.9051C17.8584 28.7265 18.4579 28.4629 19.0361 28.1014C19.6357 27.7273 20.2097 27.2426 20.6689 26.6218C21.5533 26.3241 22.2549 26.052 22.7736 25.8096L22.9522 25.7246L22.4122 26.626C22.2081 26.9704 21.6979 27.8421 21.3875 28.161C19.5804 28.769 19.3253 30.5931 19.6484 32.4172Z" fill="white"/>
<path fill-rule="evenodd" clip-rule="evenodd" d="M5.24741 20.3964C4.4438 20.1328 3.71671 19.682 3.11719 19.0825C3.35955 22.3523 5.39623 23.7767 7.93465 25.554C9.32928 26.4639 10.7069 26.7148 11.889 27.8968C9.66519 23.479 6.80788 23.8617 5.24741 20.3964Z" fill="url(#paint6_linear)"/>
<path fill-rule="evenodd" clip-rule="evenodd" d="M5.24741 20.3964C4.4438 20.1328 3.71671 19.682 3.11719 19.0825C3.35955 22.3523 5.39623 23.7767 7.93465 25.554C9.32928 26.4639 10.7069 26.7148 11.889 27.8968C9.66519 23.479 6.80788 23.8617 5.24741 20.3964Z" fill="white"/>
<path fill-rule="evenodd" clip-rule="evenodd" d="M12.8445 27.8929C18.1977 32.7656 17.4451 36.907 20.2854 38.3059C20.3067 36.754 20.1536 35.1935 19.7922 33.7648C18.7675 33.2504 18.1042 32.1278 17.3899 30.9118C16.9391 30.1507 16.4629 29.3471 15.8591 28.6625C16.161 28.4201 16.548 27.9737 17.1688 27.5315C14.7239 26.6811 13.1166 25.8817 9.35792 22.0805C7.94627 21.4172 7.55935 21.4172 8.19714 22.0805C9.93619 23.4751 11.4839 25.414 12.8445 27.8929Z" fill="url(#paint7_linear)"/>
<path fill-rule="evenodd" clip-rule="evenodd" d="M12.8445 27.8929C18.1977 32.7656 17.4451 36.907 20.2854 38.3059C20.3067 36.754 20.1536 35.1935 19.7922 33.7648C18.7675 33.2504 18.1042 32.1278 17.3899 30.9118C16.9391 30.1507 16.4629 29.3471 15.8591 28.6625C16.161 28.4201 16.548 27.9737 17.1688 27.5315C14.7239 26.6811 13.1166 25.8817 9.35792 22.0805C7.94627 21.4172 7.55935 21.4172 8.19714 22.0805C9.93619 23.4751 11.4839 25.414 12.8445 27.8929Z" fill="white"/>
<path fill-rule="evenodd" clip-rule="evenodd" d="M16.6592 1.4159C18.8404 0.48047 20.8984 0.00850444 23.0966 0C25.2906 0.00850444 27.3486 0.48047 29.5341 1.4159C26.005 1.79432 24.4275 2.47463 23.0966 3.6992V3.69494L23.0924 3.6992C21.7658 2.47463 20.1883 1.79432 16.6592 1.4159Z" fill="url(#paint8_linear)"/>
<path fill-rule="evenodd" clip-rule="evenodd" d="M16.6592 1.4159C18.8404 0.48047 20.8984 0.00850444 23.0966 0C25.2906 0.00850444 27.3486 0.48047 29.5341 1.4159C26.005 1.79432 24.4275 2.47463 23.0966 3.6992V3.69494L23.0924 3.6992C21.7658 2.47463 20.1883 1.79432 16.6592 1.4159Z" fill="white"/>
<path fill-rule="evenodd" clip-rule="evenodd" d="M44.658 9.70312C45.1639 10.6343 45.6487 11.8674 45.9633 13.4661C45.0746 13.87 44.22 14.2229 43.3951 14.5206C40.1424 15.7069 37.4637 16.0598 35.3589 15.5751C33.301 15.1031 31.7831 13.819 30.8009 11.7228C30.6988 11.506 30.601 11.2763 30.5117 11.034C30.7456 10.6513 31.0347 10.2814 31.3791 9.92423C31.4386 11.3826 32.5314 13.9466 36.3539 13.9466C37.03 13.9423 37.672 13.7765 38.246 13.4831C39.5769 13.5724 40.912 13.194 42.0515 12.5052C43.1698 11.8248 44.1052 10.8384 44.658 9.70312Z" fill="url(#paint9_linear)"/>
<path fill-rule="evenodd" clip-rule="evenodd" d="M44.658 9.70312C45.1639 10.6343 45.6487 11.8674 45.9633 13.4661C45.0746 13.87 44.22 14.2229 43.3951 14.5206C40.1424 15.7069 37.4637 16.0598 35.3589 15.5751C33.301 15.1031 31.7831 13.819 30.8009 11.7228C30.6988 11.506 30.601 11.2763 30.5117 11.034C30.7456 10.6513 31.0347 10.2814 31.3791 9.92423C31.4386 11.3826 32.5314 13.9466 36.3539 13.9466C37.03 13.9423 37.672 13.7765 38.246 13.4831C39.5769 13.5724 40.912 13.194 42.0515 12.5052C43.1698 11.8248 44.1052 10.8384 44.658 9.70312Z" fill="white"/>
<path fill-rule="evenodd" clip-rule="evenodd" d="M42.1666 6.36523C42.1241 6.69263 42.2771 7.02003 42.562 7.19011C42.6215 7.22838 43.3444 7.69609 44.1395 8.85688C43.7143 10.0559 42.7874 11.1147 41.6308 11.812C40.942 12.2329 40.1682 12.5221 39.373 12.6326C39.7897 12.1947 40.1129 11.6632 40.3127 11.0636C40.7592 9.98364 40.9633 8.60601 40.925 7.42397C41.38 7.14759 41.7924 6.79043 42.1666 6.36523Z" fill="url(#paint10_linear)"/>
<path fill-rule="evenodd" clip-rule="evenodd" d="M42.1666 6.36523C42.1241 6.69263 42.2771 7.02003 42.562 7.19011C42.6215 7.22838 43.3444 7.69609 44.1395 8.85688C43.7143 10.0559 42.7874 11.1147 41.6308 11.812C40.942 12.2329 40.1682 12.5221 39.373 12.6326C39.7897 12.1947 40.1129 11.6632 40.3127 11.0636C40.7592 9.98364 40.9633 8.60601 40.925 7.42397C41.38 7.14759 41.7924 6.79043 42.1666 6.36523Z" fill="white"/>
<path fill-rule="evenodd" clip-rule="evenodd" d="M36.3239 12.3437C33.6197 12.3437 33.118 10.7237 33.0244 10.0945C33.6494 9.40989 34.3893 8.84438 35.2142 8.42344C35.5331 9.18028 35.852 10.6855 36.443 10.6727C37.1318 10.6727 36.8554 8.92091 36.7066 7.67934C37.6038 7.27541 38.4882 6.94801 39.1685 6.72266C39.3853 8.15556 39.1642 9.62674 38.5349 10.9321C38.1438 11.7995 37.2764 12.3522 36.3239 12.3437Z" fill="url(#paint11_linear)"/>
<path fill-rule="evenodd" clip-rule="evenodd" d="M36.3239 12.3437C33.6197 12.3437 33.118 10.7237 33.0244 10.0945C33.6494 9.40989 34.3893 8.84438 35.2142 8.42344C35.5331 9.18028 35.852 10.6855 36.443 10.6727C37.1318 10.6727 36.8554 8.92091 36.7066 7.67934C37.6038 7.27541 38.4882 6.94801 39.1685 6.72266C39.3853 8.15556 39.1642 9.62674 38.5349 10.9321C38.1438 11.7995 37.2764 12.3522 36.3239 12.3437Z" fill="white"/>
<path fill-rule="evenodd" clip-rule="evenodd" d="M42.5365 18.4623C41.3332 18.7854 40.0916 18.9427 38.8415 18.9215C37.3066 18.93 35.7759 18.7259 34.2962 18.3134C32.9143 17.8925 31.4304 17.8117 30.1293 17.1782C29.1003 16.821 28.1436 16.5276 27.2465 16.298C27.2252 15.8643 27.1827 15.4349 27.1189 15.0097C27.0339 14.4569 26.9106 13.8999 26.7533 13.3387C26.6937 13.1218 26.4726 12.9985 26.2558 13.058C26.09 13.1048 25.9794 13.2494 25.9624 13.4109V13.4194C25.9581 13.479 25.9496 13.5342 25.9411 13.5853C25.8306 14.2741 25.5117 14.8609 25.078 15.2563C24.8271 15.4901 24.5337 15.656 24.2191 15.7368C23.8407 15.6985 23.4623 15.673 23.0966 15.6645C22.7267 15.673 22.3525 15.6985 21.9698 15.7368C21.6552 15.656 21.3618 15.4901 21.1109 15.2563C20.6772 14.8609 20.3583 14.2741 20.2478 13.5853C20.2435 13.5342 20.235 13.479 20.2265 13.4194V13.4109C20.2095 13.2494 20.099 13.1048 19.9331 13.058C19.7163 12.9985 19.4952 13.1218 19.4357 13.3387C19.2783 13.8999 19.155 14.4569 19.07 15.0097C19.0062 15.4349 18.9637 15.8643 18.9424 16.298C18.0453 16.5276 17.0928 16.821 16.0596 17.1782C14.7585 17.8117 13.2746 17.8925 11.8927 18.3134C10.413 18.7259 8.88232 18.93 7.34737 18.9215C6.10155 18.9427 4.85573 18.7854 3.65242 18.4623C1.12677 17.6969 0.272125 16.1577 0 14.9586C0.0255122 14.729 0.0552753 14.5079 0.0892909 14.2868C0.931177 14.6695 1.7433 14.9969 2.51715 15.2818C5.92296 16.5234 8.75476 16.8848 11.0125 16.366C13.3214 15.8345 15.0264 14.4016 16.1191 12.0631C16.2552 11.7654 16.3828 11.4593 16.5018 11.1446V11.1404L16.5061 11.1319V11.1234L16.5103 11.1191V11.1106L16.5146 11.1064V11.0936L16.5188 11.0894V11.0766L16.5231 11.0681V11.0554L16.5273 11.0511V11.0171L16.5316 11.0001V10.9788L16.5273 10.9703V10.9321L16.5231 10.9235V10.9108L16.5188 10.9023V10.8938L16.5146 10.8853V10.8725H16.5103V10.864L16.5018 10.847V10.8428L16.4976 10.8385V10.83L16.4933 10.8258V10.8215L16.4891 10.8172V10.8087H16.4848V10.8002L16.4806 10.796H16.4763V10.7875L16.4678 10.779C15.9916 9.9541 15.2943 9.17599 14.3801 8.44466C12.3902 6.85443 9.33728 5.60861 6.89666 4.89854C5.34045 4.21397 4.12014 3.48689 3.24424 2.71729C3.88628 2.31335 5.60407 1.50548 9.00563 1.50548C10.0771 1.49273 11.1444 1.68406 12.1478 2.06674C14.193 2.92563 21.6297 4.03114 22.3525 6.12735C22.6076 7.02451 22.8585 7.55175 23.0966 7.77711C23.3304 7.55175 23.5813 7.02451 23.8364 6.12735C24.5635 4.03114 31.9959 2.92563 34.0411 2.06674C35.0446 1.68406 36.1118 1.49273 37.1833 1.50548C40.5849 1.50548 42.3069 2.31335 42.9447 2.71729C42.0688 3.48689 40.8527 4.21397 39.2923 4.89854C36.8516 5.60861 33.7987 6.85443 31.8131 8.44466C30.8947 9.17599 30.1973 9.9541 29.7211 10.779L29.7126 10.7875V10.796H29.7084V10.8002L29.6999 10.8172V10.8215L29.6956 10.8258V10.83L29.6914 10.8343V10.8385L29.6871 10.8428V10.847L29.6829 10.8555V10.864H29.6786V10.8725L29.6743 10.881V10.8853L29.6701 10.8938V10.9108L29.6658 10.9193V10.9321L29.6616 10.9406V11.0298L29.6658 11.0469V11.0681L29.6701 11.0766V11.0894L29.6743 11.0936V11.1064L29.6786 11.1106V11.1149L29.6829 11.1191V11.1276L29.6871 11.1319V11.1404L29.6914 11.1446C29.8062 11.4593 29.9337 11.7654 30.0698 12.0631C31.1625 14.4016 32.8676 15.8345 35.1764 16.366C37.4342 16.8848 40.2702 16.5234 43.6718 15.2818C44.4456 14.9969 45.2577 14.6695 46.1039 14.2868C46.1336 14.5079 46.1634 14.729 46.1889 14.9586C45.9168 16.1577 45.0622 17.6969 42.5365 18.4623Z" fill="url(#paint12_linear)"/>
<path fill-rule="evenodd" clip-rule="evenodd" d="M42.5365 18.4623C41.3332 18.7854 40.0916 18.9427 38.8415 18.9215C37.3066 18.93 35.7759 18.7259 34.2962 18.3134C32.9143 17.8925 31.4304 17.8117 30.1293 17.1782C29.1003 16.821 28.1436 16.5276 27.2465 16.298C27.2252 15.8643 27.1827 15.4349 27.1189 15.0097C27.0339 14.4569 26.9106 13.8999 26.7533 13.3387C26.6937 13.1218 26.4726 12.9985 26.2558 13.058C26.09 13.1048 25.9794 13.2494 25.9624 13.4109V13.4194C25.9581 13.479 25.9496 13.5342 25.9411 13.5853C25.8306 14.2741 25.5117 14.8609 25.078 15.2563C24.8271 15.4901 24.5337 15.656 24.2191 15.7368C23.8407 15.6985 23.4623 15.673 23.0966 15.6645C22.7267 15.673 22.3525 15.6985 21.9698 15.7368C21.6552 15.656 21.3618 15.4901 21.1109 15.2563C20.6772 14.8609 20.3583 14.2741 20.2478 13.5853C20.2435 13.5342 20.235 13.479 20.2265 13.4194V13.4109C20.2095 13.2494 20.099 13.1048 19.9331 13.058C19.7163 12.9985 19.4952 13.1218 19.4357 13.3387C19.2783 13.8999 19.155 14.4569 19.07 15.0097C19.0062 15.4349 18.9637 15.8643 18.9424 16.298C18.0453 16.5276 17.0928 16.821 16.0596 17.1782C14.7585 17.8117 13.2746 17.8925 11.8927 18.3134C10.413 18.7259 8.88232 18.93 7.34737 18.9215C6.10155 18.9427 4.85573 18.7854 3.65242 18.4623C1.12677 17.6969 0.272125 16.1577 0 14.9586C0.0255122 14.729 0.0552753 14.5079 0.0892909 14.2868C0.931177 14.6695 1.7433 14.9969 2.51715 15.2818C5.92296 16.5234 8.75476 16.8848 11.0125 16.366C13.3214 15.8345 15.0264 14.4016 16.1191 12.0631C16.2552 11.7654 16.3828 11.4593 16.5018 11.1446V11.1404L16.5061 11.1319V11.1234L16.5103 11.1191V11.1106L16.5146 11.1064V11.0936L16.5188 11.0894V11.0766L16.5231 11.0681V11.0554L16.5273 11.0511V11.0171L16.5316 11.0001V10.9788L16.5273 10.9703V10.9321L16.5231 10.9235V10.9108L16.5188 10.9023V10.8938L16.5146 10.8853V10.8725H16.5103V10.864L16.5018 10.847V10.8428L16.4976 10.8385V10.83L16.4933 10.8258V10.8215L16.4891 10.8172V10.8087H16.4848V10.8002L16.4806 10.796H16.4763V10.7875L16.4678 10.779C15.9916 9.9541 15.2943 9.17599 14.3801 8.44466C12.3902 6.85443 9.33728 5.60861 6.89666 4.89854C5.34045 4.21397 4.12014 3.48689 3.24424 2.71729C3.88628 2.31335 5.60407 1.50548 9.00563 1.50548C10.0771 1.49273 11.1444 1.68406 12.1478 2.06674C14.193 2.92563 21.6297 4.03114 22.3525 6.12735C22.6076 7.02451 22.8585 7.55175 23.0966 7.77711C23.3304 7.55175 23.5813 7.02451 23.8364 6.12735C24.5635 4.03114 31.9959 2.92563 34.0411 2.06674C35.0446 1.68406 36.1118 1.49273 37.1833 1.50548C40.5849 1.50548 42.3069 2.31335 42.9447 2.71729C42.0688 3.48689 40.8527 4.21397 39.2923 4.89854C36.8516 5.60861 33.7987 6.85443 31.8131 8.44466C30.8947 9.17599 30.1973 9.9541 29.7211 10.779L29.7126 10.7875V10.796H29.7084V10.8002L29.6999 10.8172V10.8215L29.6956 10.8258V10.83L29.6914 10.8343V10.8385L29.6871 10.8428V10.847L29.6829 10.8555V10.864H29.6786V10.8725L29.6743 10.881V10.8853L29.6701 10.8938V10.9108L29.6658 10.9193V10.9321L29.6616 10.9406V11.0298L29.6658 11.0469V11.0681L29.6701 11.0766V11.0894L29.6743 11.0936V11.1064L29.6786 11.1106V11.1149L29.6829 11.1191V11.1276L29.6871 11.1319V11.1404L29.6914 11.1446C29.8062 11.4593 29.9337 11.7654 30.0698 12.0631C31.1625 14.4016 32.8676 15.8345 35.1764 16.366C37.4342 16.8848 40.2702 16.5234 43.6718 15.2818C44.4456 14.9969 45.2577 14.6695 46.1039 14.2868C46.1336 14.5079 46.1634 14.729 46.1889 14.9586C45.9168 16.1577 45.0622 17.6969 42.5365 18.4623Z" fill="white"/>
<path fill-rule="evenodd" clip-rule="evenodd" d="M29.6101 24.453C29.4442 22.7777 29.4612 20.6645 29.3975 19.0317C30.1118 19.0487 31.1833 19.2443 31.7233 19.5547C31.651 20.8941 31.3151 22.3355 30.486 23.93C29.8482 25.1545 29.6781 25.1205 29.6101 24.453Z" fill="url(#paint13_linear)"/>
<path fill-rule="evenodd" clip-rule="evenodd" d="M29.6101 24.453C29.4442 22.7777 29.4612 20.6645 29.3975 19.0317C30.1118 19.0487 31.1833 19.2443 31.7233 19.5547C31.651 20.8941 31.3151 22.3355 30.486 23.93C29.8482 25.1545 29.6781 25.1205 29.6101 24.453Z" fill="white"/>
<path fill-rule="evenodd" clip-rule="evenodd" d="M26.5407 32.4172C27.051 31.9069 27.4889 31.1671 27.9524 30.3805C28.2415 29.8915 28.5391 29.3898 28.8708 28.9051C28.3308 28.7265 27.7313 28.4629 27.153 28.1014C26.5577 27.7273 25.9795 27.2426 25.5203 26.6218C24.6359 26.3241 23.9343 26.052 23.4198 25.8096L23.2412 25.7246L23.777 26.626C23.9853 26.9704 24.4913 27.8421 24.8017 28.161C26.6088 28.769 26.8681 30.5931 26.5407 32.4172Z" fill="url(#paint14_linear)"/>
<path fill-rule="evenodd" clip-rule="evenodd" d="M26.5407 32.4172C27.051 31.9069 27.4889 31.1671 27.9524 30.3805C28.2415 29.8915 28.5391 29.3898 28.8708 28.9051C28.3308 28.7265 27.7313 28.4629 27.153 28.1014C26.5577 27.7273 25.9795 27.2426 25.5203 26.6218C24.6359 26.3241 23.9343 26.052 23.4198 25.8096L23.2412 25.7246L23.777 26.626C23.9853 26.9704 24.4913 27.8421 24.8017 28.161C26.6088 28.769 26.8681 30.5931 26.5407 32.4172Z" fill="white"/>
<path fill-rule="evenodd" clip-rule="evenodd" d="M40.9423 20.3964C41.7459 20.1328 42.4773 19.682 43.0726 19.0825C42.8302 22.3523 40.7935 23.7767 38.2551 25.554C36.8605 26.4639 35.4828 26.7148 34.3008 27.8968C36.5246 23.479 39.3819 23.8617 40.9423 20.3964Z" fill="url(#paint15_linear)"/>
<path fill-rule="evenodd" clip-rule="evenodd" d="M40.9423 20.3964C41.7459 20.1328 42.4773 19.682 43.0726 19.0825C42.8302 22.3523 40.7935 23.7767 38.2551 25.554C36.8605 26.4639 35.4828 26.7148 34.3008 27.8968C36.5246 23.479 39.3819 23.8617 40.9423 20.3964Z" fill="white"/>
<path fill-rule="evenodd" clip-rule="evenodd" d="M33.3437 27.8929C27.9905 32.7656 28.7431 36.907 25.907 38.3059C25.8815 36.754 26.0346 35.1935 26.396 33.7648C27.4207 33.2504 28.084 32.1278 28.8026 30.9118C29.2533 30.1507 29.7253 29.3471 30.329 28.6625C30.0314 28.4201 29.6402 27.9737 29.0194 27.5315C31.4643 26.6811 33.0758 25.8817 36.8303 22.0805C38.2419 21.4172 38.6288 21.4172 37.9911 22.0805C36.2563 23.4751 34.7043 25.414 33.3437 27.8929Z" fill="url(#paint16_linear)"/>
<path fill-rule="evenodd" clip-rule="evenodd" d="M33.3437 27.8929C27.9905 32.7656 28.7431 36.907 25.907 38.3059C25.8815 36.754 26.0346 35.1935 26.396 33.7648C27.4207 33.2504 28.084 32.1278 28.8026 30.9118C29.2533 30.1507 29.7253 29.3471 30.329 28.6625C30.0314 28.4201 29.6402 27.9737 29.0194 27.5315C31.4643 26.6811 33.0758 25.8817 36.8303 22.0805C38.2419 21.4172 38.6288 21.4172 37.9911 22.0805C36.2563 23.4751 34.7043 25.414 33.3437 27.8929Z" fill="white"/>
<defs>
<linearGradient id="paint0_linear" x1="3.46761e-07" y1="5.5" x2="40.5" y2="36" gradientUnits="userSpaceOnUse">
<stop stop-color="#838383"/>
<stop offset="0.406972" stop-color="#666666"/>
<stop offset="0.43335" stop-color="#979797"/>
<stop offset="0.575098" stop-color="#6D6D6D"/>
<stop offset="0.616051" stop-color="white"/>
<stop offset="0.699851" stop-color="#9B9B9B"/>
<stop offset="0.726517" stop-color="white"/>
<stop offset="0.78346" stop-color="#838383"/>
</linearGradient>
<linearGradient id="paint1_linear" x1="3.46761e-07" y1="5.5" x2="40.5" y2="36" gradientUnits="userSpaceOnUse">
<stop stop-color="#838383"/>
<stop offset="0.406972" stop-color="#666666"/>
<stop offset="0.43335" stop-color="#979797"/>
<stop offset="0.575098" stop-color="#6D6D6D"/>
<stop offset="0.616051" stop-color="white"/>
<stop offset="0.699851" stop-color="#9B9B9B"/>
<stop offset="0.726517" stop-color="white"/>
<stop offset="0.78346" stop-color="#838383"/>
</linearGradient>
<linearGradient id="paint2_linear" x1="3.46761e-07" y1="5.5" x2="40.5" y2="36" gradientUnits="userSpaceOnUse">
<stop stop-color="#838383"/>
<stop offset="0.406972" stop-color="#666666"/>
<stop offset="0.43335" stop-color="#979797"/>
<stop offset="0.575098" stop-color="#6D6D6D"/>
<stop offset="0.616051" stop-color="white"/>
<stop offset="0.699851" stop-color="#9B9B9B"/>
<stop offset="0.726517" stop-color="white"/>
<stop offset="0.78346" stop-color="#838383"/>
</linearGradient>
<linearGradient id="paint3_linear" x1="3.46761e-07" y1="5.5" x2="40.5" y2="36" gradientUnits="userSpaceOnUse">
<stop stop-color="#838383"/>
<stop offset="0.406972" stop-color="#666666"/>
<stop offset="0.43335" stop-color="#979797"/>
<stop offset="0.575098" stop-color="#6D6D6D"/>
<stop offset="0.616051" stop-color="white"/>
<stop offset="0.699851" stop-color="#9B9B9B"/>
<stop offset="0.726517" stop-color="white"/>
<stop offset="0.78346" stop-color="#838383"/>
</linearGradient>
<linearGradient id="paint4_linear" x1="3.46761e-07" y1="5.5" x2="40.5" y2="36" gradientUnits="userSpaceOnUse">
<stop stop-color="#838383"/>
<stop offset="0.406972" stop-color="#666666"/>
<stop offset="0.43335" stop-color="#979797"/>
<stop offset="0.575098" stop-color="#6D6D6D"/>
<stop offset="0.616051" stop-color="white"/>
<stop offset="0.699851" stop-color="#9B9B9B"/>
<stop offset="0.726517" stop-color="white"/>
<stop offset="0.78346" stop-color="#838383"/>
</linearGradient>
<linearGradient id="paint5_linear" x1="3.46761e-07" y1="5.5" x2="40.5" y2="36" gradientUnits="userSpaceOnUse">
<stop stop-color="#838383"/>
<stop offset="0.406972" stop-color="#666666"/>
<stop offset="0.43335" stop-color="#979797"/>
<stop offset="0.575098" stop-color="#6D6D6D"/>
<stop offset="0.616051" stop-color="white"/>
<stop offset="0.699851" stop-color="#9B9B9B"/>
<stop offset="0.726517" stop-color="white"/>
<stop offset="0.78346" stop-color="#838383"/>
</linearGradient>
<linearGradient id="paint6_linear" x1="3.46761e-07" y1="5.5" x2="40.5" y2="36" gradientUnits="userSpaceOnUse">
<stop stop-color="#838383"/>
<stop offset="0.406972" stop-color="#666666"/>
<stop offset="0.43335" stop-color="#979797"/>
<stop offset="0.575098" stop-color="#6D6D6D"/>
<stop offset="0.616051" stop-color="white"/>
<stop offset="0.699851" stop-color="#9B9B9B"/>
<stop offset="0.726517" stop-color="white"/>
<stop offset="0.78346" stop-color="#838383"/>
</linearGradient>
<linearGradient id="paint7_linear" x1="3.46761e-07" y1="5.5" x2="40.5" y2="36" gradientUnits="userSpaceOnUse">
<stop stop-color="#838383"/>
<stop offset="0.406972" stop-color="#666666"/>
<stop offset="0.43335" stop-color="#979797"/>
<stop offset="0.575098" stop-color="#6D6D6D"/>
<stop offset="0.616051" stop-color="white"/>
<stop offset="0.699851" stop-color="#9B9B9B"/>
<stop offset="0.726517" stop-color="white"/>
<stop offset="0.78346" stop-color="#838383"/>
</linearGradient>
<linearGradient id="paint8_linear" x1="3.46761e-07" y1="5.5" x2="40.5" y2="36" gradientUnits="userSpaceOnUse">
<stop stop-color="#838383"/>
<stop offset="0.406972" stop-color="#666666"/>
<stop offset="0.43335" stop-color="#979797"/>
<stop offset="0.575098" stop-color="#6D6D6D"/>
<stop offset="0.616051" stop-color="white"/>
<stop offset="0.699851" stop-color="#9B9B9B"/>
<stop offset="0.726517" stop-color="white"/>
<stop offset="0.78346" stop-color="#838383"/>
</linearGradient>
<linearGradient id="paint9_linear" x1="3.46761e-07" y1="5.5" x2="40.5" y2="36" gradientUnits="userSpaceOnUse">
<stop stop-color="#838383"/>
<stop offset="0.406972" stop-color="#666666"/>
<stop offset="0.43335" stop-color="#979797"/>
<stop offset="0.575098" stop-color="#6D6D6D"/>
<stop offset="0.616051" stop-color="white"/>
<stop offset="0.699851" stop-color="#9B9B9B"/>
<stop offset="0.726517" stop-color="white"/>
<stop offset="0.78346" stop-color="#838383"/>
</linearGradient>
<linearGradient id="paint10_linear" x1="3.46761e-07" y1="5.5" x2="40.5" y2="36" gradientUnits="userSpaceOnUse">
<stop stop-color="#838383"/>
<stop offset="0.406972" stop-color="#666666"/>
<stop offset="0.43335" stop-color="#979797"/>
<stop offset="0.575098" stop-color="#6D6D6D"/>
<stop offset="0.616051" stop-color="white"/>
<stop offset="0.699851" stop-color="#9B9B9B"/>
<stop offset="0.726517" stop-color="white"/>
<stop offset="0.78346" stop-color="#838383"/>
</linearGradient>
<linearGradient id="paint11_linear" x1="3.46761e-07" y1="5.5" x2="40.5" y2="36" gradientUnits="userSpaceOnUse">
<stop stop-color="#838383"/>
<stop offset="0.406972" stop-color="#666666"/>
<stop offset="0.43335" stop-color="#979797"/>
<stop offset="0.575098" stop-color="#6D6D6D"/>
<stop offset="0.616051" stop-color="white"/>
<stop offset="0.699851" stop-color="#9B9B9B"/>
<stop offset="0.726517" stop-color="white"/>
<stop offset="0.78346" stop-color="#838383"/>
</linearGradient>
<linearGradient id="paint12_linear" x1="3.46761e-07" y1="5.5" x2="40.5" y2="36" gradientUnits="userSpaceOnUse">
<stop stop-color="#838383"/>
<stop offset="0.406972" stop-color="#666666"/>
<stop offset="0.43335" stop-color="#979797"/>
<stop offset="0.575098" stop-color="#6D6D6D"/>
<stop offset="0.616051" stop-color="white"/>
<stop offset="0.699851" stop-color="#9B9B9B"/>
<stop offset="0.726517" stop-color="white"/>
<stop offset="0.78346" stop-color="#838383"/>
</linearGradient>
<linearGradient id="paint13_linear" x1="3.46761e-07" y1="5.5" x2="40.5" y2="36" gradientUnits="userSpaceOnUse">
<stop stop-color="#838383"/>
<stop offset="0.406972" stop-color="#666666"/>
<stop offset="0.43335" stop-color="#979797"/>
<stop offset="0.575098" stop-color="#6D6D6D"/>
<stop offset="0.616051" stop-color="white"/>
<stop offset="0.699851" stop-color="#9B9B9B"/>
<stop offset="0.726517" stop-color="white"/>
<stop offset="0.78346" stop-color="#838383"/>
</linearGradient>
<linearGradient id="paint14_linear" x1="3.46761e-07" y1="5.5" x2="40.5" y2="36" gradientUnits="userSpaceOnUse">
<stop stop-color="#838383"/>
<stop offset="0.406972" stop-color="#666666"/>
<stop offset="0.43335" stop-color="#979797"/>
<stop offset="0.575098" stop-color="#6D6D6D"/>
<stop offset="0.616051" stop-color="white"/>
<stop offset="0.699851" stop-color="#9B9B9B"/>
<stop offset="0.726517" stop-color="white"/>
<stop offset="0.78346" stop-color="#838383"/>
</linearGradient>
<linearGradient id="paint15_linear" x1="3.46761e-07" y1="5.5" x2="40.5" y2="36" gradientUnits="userSpaceOnUse">
<stop stop-color="#838383"/>
<stop offset="0.406972" stop-color="#666666"/>
<stop offset="0.43335" stop-color="#979797"/>
<stop offset="0.575098" stop-color="#6D6D6D"/>
<stop offset="0.616051" stop-color="white"/>
<stop offset="0.699851" stop-color="#9B9B9B"/>
<stop offset="0.726517" stop-color="white"/>
<stop offset="0.78346" stop-color="#838383"/>
</linearGradient>
<linearGradient id="paint16_linear" x1="3.46761e-07" y1="5.5" x2="40.5" y2="36" gradientUnits="userSpaceOnUse">
<stop stop-color="#838383"/>
<stop offset="0.406972" stop-color="#666666"/>
<stop offset="0.43335" stop-color="#979797"/>
<stop offset="0.575098" stop-color="#6D6D6D"/>
<stop offset="0.616051" stop-color="white"/>
<stop offset="0.699851" stop-color="#9B9B9B"/>
<stop offset="0.726517" stop-color="white"/>
<stop offset="0.78346" stop-color="#838383"/>
</linearGradient>
</defs>
</svg>
