<svg width="18" height="12" viewBox="0 0 18 12" fill="none" xmlns="http://www.w3.org/2000/svg">
<path d="M1.41699 1.75701L8.16699 5.38311C8.39379 5.50461 8.68719 5.56221 8.98239 5.56221C9.27759 5.56221 9.57099 5.50461 9.79779 5.38311L16.5478 1.75701C16.9879 1.52031 17.4037 0.599609 16.5964 0.599609H1.36929C0.561992 0.599609 0.977792 1.52031 1.41699 1.75701ZM16.7521 3.73971L9.79779 7.36401C9.49179 7.52421 9.27759 7.54311 8.98239 7.54311C8.68719 7.54311 8.47299 7.52421 8.16699 7.36401C7.86099 7.20381 1.74729 3.99891 1.24779 3.73881C0.896792 3.55521 0.900392 3.77031 0.900392 3.93591V10.4996C0.900392 10.8776 1.40979 11.3996 1.80039 11.3996H16.2004C16.591 11.3996 17.1004 10.8776 17.1004 10.4996V3.93681C17.1004 3.77121 17.104 3.55611 16.7521 3.73971Z" fill="white"/>
</svg>
