<svg width="12" height="18" viewBox="0 0 12 18" fill="none" xmlns="http://www.w3.org/2000/svg">
<path d="M12 6.3C12 5.47267 11.8448 4.65345 11.5433 3.88909C11.2417 3.12474 10.7998 2.43024 10.2426 1.84523C9.68549 1.26022 9.02405 0.796164 8.2961 0.479559C7.56815 0.162954 6.78793 0 6 0C5.21207 0 4.43185 0.162954 3.7039 0.479559C2.97595 0.796164 2.31451 1.26022 1.75736 1.84523C1.20021 2.43024 0.758251 3.12474 0.456723 3.88909C0.155194 4.65345 -1.17411e-08 5.47267 0 6.3C0 7.5483 0.351429 8.7093 0.947143 9.6885H0.940286C2.96314 13.014 6 18 6 18L11.0597 9.6885H11.0537C11.6712 8.67723 11.9996 7.50127 12 6.3ZM6 9C5.31801 9 4.66396 8.71554 4.18172 8.20919C3.69949 7.70284 3.42857 7.01608 3.42857 6.3C3.42857 5.58392 3.69949 4.89716 4.18172 4.39081C4.66396 3.88446 5.31801 3.6 6 3.6C6.68198 3.6 7.33604 3.88446 7.81827 4.39081C8.30051 4.89716 8.57143 5.58392 8.57143 6.3C8.57143 7.01608 8.30051 7.70284 7.81827 8.20919C7.33604 8.71554 6.68198 9 6 9Z" fill="white"/>
</svg>
