<svg width="16" height="16" viewBox="0 0 16 16" fill="none" xmlns="http://www.w3.org/2000/svg">
<path d="M14.5672 3.04648L12.6951 1.17617C12.5631 1.04353 12.4061 0.938294 12.2332 0.866499C12.0604 0.794704 11.8751 0.757768 11.6879 0.757813C11.3064 0.757813 10.9479 0.907227 10.6789 1.17617L8.66445 3.19062C8.53182 3.32268 8.42658 3.47965 8.35478 3.6525C8.28299 3.82535 8.24605 4.01068 8.24609 4.19785C8.24609 4.5793 8.39551 4.93789 8.66445 5.20684L10.1375 6.67988C9.79269 7.43989 9.3133 8.13129 8.72246 8.7207C8.1331 9.31298 7.44177 9.79412 6.68164 10.141L5.2086 8.66797C5.07654 8.53533 4.91957 8.43009 4.74672 8.3583C4.57387 8.2865 4.38854 8.24956 4.20137 8.24961C3.81992 8.24961 3.46133 8.39902 3.19238 8.66797L1.17617 10.6807C1.04337 10.813 0.938042 10.9702 0.866243 11.1434C0.794445 11.3165 0.757595 11.5022 0.757813 11.6896C0.757813 12.0711 0.907228 12.4297 1.17617 12.6986L3.04473 14.5672C3.47363 14.9979 4.06602 15.2422 4.67422 15.2422C4.80254 15.2422 4.92559 15.2316 5.04688 15.2105C7.41641 14.8203 9.7666 13.56 11.6633 11.665C13.5582 9.77188 14.8168 7.42344 15.2123 5.04688C15.3318 4.3209 15.091 3.57383 14.5672 3.04648Z" fill="white"/>
</svg>
