<svg width="44" height="44" viewBox="0 0 44 44" fill="none" xmlns="http://www.w3.org/2000/svg">
<path d="M22.0581 4C12.1262 4 4 12.0359 4 21.9678C4 31.8998 12.1262 40.026 22.0581 40.026C31.9901 40.026 40.1162 31.8998 40.1162 21.9678C40.1162 12.0359 31.9901 4 22.0581 4ZM21.5164 12.1262H22.5999V13.7514H26.7532C28.4688 13.7514 29.8231 15.1057 29.8231 16.8213V21.4261H31.9901V22.5096H29.9134V27.0241C29.9134 28.7396 28.559 30.094 26.8435 30.094H22.6902V31.8998H21.6067V30.1843H17.4533C15.7378 30.1843 14.3834 28.7396 14.3834 27.1144V22.5999H12.1262V21.5164H14.2028V16.9116C14.2028 15.196 15.5572 13.8417 17.2727 13.8417H21.4261V12.1262H21.5164ZM17.363 14.8349C16.2795 14.8349 15.3766 15.7378 15.3766 16.8213V21.4261H16.8213V22.5096H15.3766V27.0241C15.3766 28.1076 16.2795 29.0105 17.363 29.0105H21.5164V27.3853H22.5999V29.1008H26.7532C27.8367 29.1008 28.7396 28.1979 28.7396 27.1144V22.5999H27.295V21.5164H28.7396V16.9116C28.7396 15.8281 27.8367 14.9252 26.7532 14.9252H22.5999V16.731H21.5164V14.9252H17.363V14.8349ZM22.0581 19.1688C23.5931 19.1688 24.8571 20.4329 24.8571 21.9678C24.8571 23.5028 23.5931 24.7668 22.0581 24.7668C20.5232 24.7668 19.2591 23.5028 19.2591 21.9678C19.2591 20.4329 20.5232 19.1688 22.0581 19.1688ZM22.0581 20.162C21.0649 20.162 20.2523 20.8843 20.2523 21.8775C20.2523 22.8707 21.0649 23.5931 22.0581 23.5931C23.0513 23.5931 23.7736 22.8707 23.7736 21.8775C23.7736 20.8843 23.0513 20.162 22.0581 20.162Z" fill="#69692C"/>
</svg>
