<svg width="44" height="44" viewBox="0 0 44 44" fill="none" xmlns="http://www.w3.org/2000/svg">
<path fill-rule="evenodd" clip-rule="evenodd" d="M15.6247 3H25.461V5.71429H23.6726V7.82295C27.5694 8.57792 30.9806 10.7162 33.3877 13.7132L35.0768 12.7265L34.7302 12.1192L37.0535 10.762L39.9459 15.8311L37.6227 17.1883L37.3122 16.6441L35.714 17.5777C36.5964 19.6251 37.0858 21.8857 37.0858 24.2619C37.0858 33.5061 29.6793 41 20.5429 41C11.4065 41 4 33.5061 4 24.2619C4 16.1003 9.77326 9.30313 17.4131 7.82295V5.71429H15.6247V3ZM18.3074 7.67534C19.0385 7.57541 19.7847 7.52381 20.5429 7.52381C21.301 7.52381 22.0473 7.57541 22.7784 7.67534V5.71429H18.3074V7.67534ZM33.9374 14.4368L35.5239 13.51L36.8651 15.8605L35.333 16.7555C34.9291 15.9425 34.4617 15.1674 33.9374 14.4368ZM32.6066 23.8095C32.3768 17.4235 27.3016 12.2883 20.99 12.0558V12.0476H20.5429H20.0958V12.0558C13.7842 12.2883 8.70898 17.4235 8.47917 23.8095H8.47105V24.2619V24.7143H8.47917C8.70898 31.1003 13.7842 36.2355 20.0958 36.468V36.4762H20.5429H20.99V36.468C27.3016 36.2355 32.3768 31.1003 32.6066 24.7143H32.6147V24.2619V23.8095H32.6066ZM31.7117 23.8095H29.9321V24.7143H31.7117C31.4829 30.6006 26.8076 35.331 20.99 35.5626V33.7619H20.0958V35.5626C14.2781 35.331 9.60289 30.6006 9.37404 24.7143H11.1537V23.8095H9.37404C9.60289 17.9232 14.2781 13.1928 20.0958 12.9613V14.7619H20.99V12.9613C26.8076 13.1928 31.4829 17.9232 31.7117 23.8095ZM20.99 24.7143V17.4762H20.0958V24.7143H20.99Z" fill="#69692C"/>
</svg>
