<svg width="37" height="22" viewBox="0 0 37 22" fill="none" xmlns="http://www.w3.org/2000/svg">
<path d="M36.8038 19.4011C36.759 19.3071 36.7172 19.2292 36.6784 19.1668C36.0365 18.0418 34.8097 16.6611 32.9989 15.0241L32.9607 14.9866L32.9415 14.9682L32.9221 14.9494H32.9027C32.0809 14.1871 31.5604 13.6746 31.3425 13.4122C30.9437 12.9123 30.8544 12.4063 31.0723 11.8937C31.2263 11.5063 31.8047 10.6883 32.8061 9.43855C33.3329 8.7762 33.7501 8.24535 34.0582 7.84541C36.2802 4.97123 37.2435 3.1346 36.948 2.33478L36.8332 2.14787C36.7561 2.03535 36.557 1.93241 36.2363 1.83853C35.9149 1.74484 35.504 1.72935 35.003 1.79178L29.455 1.82907C29.3652 1.79809 29.2368 1.80097 29.0696 1.83853C28.9026 1.87608 28.8191 1.89492 28.8191 1.89492L28.7225 1.94186L28.6459 1.99825C28.5817 2.03554 28.511 2.10113 28.4339 2.19488C28.3572 2.2883 28.293 2.39793 28.2417 2.52287C27.6377 4.03486 26.9509 5.44063 26.1802 6.74012C25.705 7.51499 25.2685 8.18653 24.87 8.75512C24.472 9.32353 24.138 9.74231 23.8685 10.0108C23.5986 10.2795 23.3551 10.4947 23.1363 10.6573C22.9179 10.82 22.7512 10.8888 22.6357 10.8636C22.52 10.8385 22.411 10.8135 22.3079 10.7886C22.1282 10.6761 21.9836 10.523 21.8747 10.3294C21.7652 10.1357 21.6915 9.89193 21.653 9.59827C21.6147 9.30442 21.592 9.05167 21.5855 8.83916C21.5795 8.62691 21.5823 8.32669 21.5953 7.93935C21.6087 7.55182 21.6147 7.28961 21.6147 7.15214C21.6147 6.67722 21.6242 6.1618 21.6433 5.60574C21.6627 5.04968 21.6785 4.6091 21.6916 4.28453C21.7047 3.95962 21.7108 3.61588 21.7108 3.25349C21.7108 2.8911 21.6881 2.6069 21.6433 2.40062C21.599 2.19461 21.5311 1.99464 21.4416 1.80078C21.3515 1.60711 21.2196 1.45729 21.0466 1.35094C20.8733 1.24472 20.6578 1.16042 20.4013 1.09779C19.7206 0.947913 18.8537 0.866834 17.8004 0.854229C15.4117 0.829282 13.8769 0.979359 13.1962 1.30426C12.9265 1.44154 12.6825 1.6291 12.4643 1.86636C12.233 2.14137 12.2008 2.29145 12.3677 2.31613C13.1384 2.42846 13.684 2.69717 14.0051 3.12199L14.1208 3.34711C14.2108 3.50953 14.3007 3.79707 14.3907 4.20936C14.4805 4.62164 14.5384 5.07772 14.5639 5.57732C14.628 6.48966 14.628 7.27064 14.5639 7.92031C14.4996 8.57025 14.4389 9.07622 14.3809 9.43861C14.323 9.801 14.2363 10.0947 14.1208 10.3195C14.0051 10.5444 13.9281 10.6819 13.8895 10.7318C13.851 10.7817 13.8189 10.8131 13.7934 10.8255C13.6264 10.8877 13.4528 10.9194 13.2732 10.9194C13.0932 10.9194 12.875 10.8318 12.6182 10.6568C12.3614 10.4818 12.095 10.2414 11.8188 9.93519C11.5426 9.62893 11.2312 9.20096 10.8843 8.6512C10.5377 8.10144 10.1781 7.4517 9.8056 6.70197L9.49744 6.15826C9.3048 5.80847 9.04165 5.29916 8.70772 4.63077C8.37359 3.96212 8.07826 3.31533 7.82152 2.69054C7.71889 2.42813 7.56471 2.22836 7.35926 2.09089L7.26284 2.03449C7.19874 1.9846 7.09584 1.93162 6.95468 1.87516C6.81332 1.81876 6.66583 1.77832 6.51158 1.75344L1.23316 1.79073C0.693768 1.79073 0.327789 1.90963 0.135083 2.14708L0.0579602 2.25941C0.0194325 2.32198 0 2.4219 0 2.55943C0 2.69691 0.0385277 2.86563 0.11565 3.0654C0.886204 4.82746 1.72416 6.52682 2.62953 8.16375C3.5349 9.80067 4.32164 11.1193 4.9893 12.1183C5.65709 13.1181 6.33777 14.0617 7.03133 14.9487C7.7249 15.8359 8.18399 16.4045 8.40861 16.6543C8.6335 16.9046 8.81015 17.0917 8.93855 17.2166L9.42025 17.6664C9.72847 17.9663 10.1811 18.3256 10.7783 18.7441C11.3756 19.1629 12.037 19.5752 12.7626 19.9816C13.4883 20.3874 14.3326 20.7185 15.296 20.9746C16.2591 21.231 17.1966 21.3339 18.1085 21.2842H20.324C20.7733 21.2465 21.1137 21.109 21.3451 20.8718L21.4217 20.7778C21.4733 20.7032 21.5215 20.5874 21.566 20.4314C21.6111 20.2753 21.6335 20.1032 21.6335 19.916C21.6204 19.3788 21.6624 18.8946 21.7585 18.4636C21.8545 18.0326 21.9639 17.7077 22.0863 17.4889C22.2087 17.2703 22.3467 17.0858 22.5004 16.9363C22.6543 16.7864 22.764 16.6956 22.8284 16.6644C22.8924 16.6329 22.9435 16.6116 22.982 16.5988C23.2902 16.4989 23.653 16.5956 24.0707 16.8895C24.4882 17.1832 24.8798 17.5458 25.246 17.9767C25.6121 18.408 26.0519 18.8919 26.5655 19.4292C27.0794 19.9666 27.5288 20.3661 27.9139 20.6289L28.2991 20.8538C28.5563 21.0038 28.8902 21.1413 29.3013 21.2663C29.7116 21.3911 30.0711 21.4224 30.3798 21.3599L35.3112 21.2851C35.799 21.2851 36.1786 21.2065 36.4478 21.0506C36.7175 20.8944 36.8778 20.7223 36.9295 20.5352C36.981 20.3478 36.9838 20.1352 36.9393 19.8976C36.8936 19.6605 36.8486 19.4947 36.8038 19.4011Z" fill="white"/>
</svg>
