<?xml version="1.0" encoding="utf-8"?>
<svg width="44" height="44" viewBox="0 0 44 44" fill="none" xmlns="http://www.w3.org/2000/svg">
<path fill-rule="evenodd" clip-rule="evenodd" d="M27.4192 28.2915C25.6837 31.4173 23.8381 34.273 22.5895 36.2048C22.506 36.3341 22.3183 36.3351 22.2334 36.2068C20.9565 34.2749 19.1035 31.4184 17.3702 28.2915H12.1317C11.7344 28.2915 11.3699 28.513 11.185 28.8669L6.12431 38.5532C5.74989 39.2699 6.26637 40.1303 7.07099 40.1303H37.7549C38.5595 40.1303 39.076 39.2699 38.7016 38.5532L33.6409 28.8669C33.456 28.513 33.0915 28.2915 32.6942 28.2915H27.4192Z" fill="#69692C"/>
<path fill-rule="evenodd" clip-rule="evenodd" d="M22.2376 34.2102C22.3221 34.3375 22.5031 34.3365 22.5864 34.2084C25.7014 29.4137 32.3688 18.2488 32.3688 12.8888C32.3688 7.42736 27.9116 3 22.4134 3C16.9152 3 12.458 7.42736 12.458 12.8888C12.458 18.2495 19.0523 29.4166 22.2376 34.2102ZM22.4134 17.2151C24.8189 17.2151 26.7689 15.2781 26.7689 12.8888C26.7689 10.4994 24.8189 8.56242 22.4134 8.56242C20.0079 8.56242 18.0579 10.4994 18.0579 12.8888C18.0579 15.2781 20.0079 17.2151 22.4134 17.2151Z" fill="#69692C"/>
</svg>
