<svg width="100" height="100" fill="none" xmlns="http://www.w3.org/2000/svg"><path fill="#0B0B0B" d="M0 0h100v100H0z"/><path fill-rule="evenodd" clip-rule="evenodd" d="M11.718 33.375c-.898 1.668-1.759 3.876-2.318 6.739a61.247 61.247 0 004.56 1.888c5.774 2.124 10.538 2.756 14.274 1.888 3.646-.845 6.34-3.144 8.085-6.898.18-.388.354-.8.52-1.233a11.975 11.975 0 00-1.547-1.988c-.106 2.612-2.038 7.203-8.832 7.203a7.435 7.435 0 01-3.359-.83c-2.363.16-4.733-.518-6.748-1.751-1.993-1.218-3.654-2.985-4.635-5.018z" fill="#fff"/><path fill-rule="evenodd" clip-rule="evenodd" d="M16.142 27.398a1.488 1.488 0 01-.702 1.477c-.106.069-1.39.906-2.8 2.985.754 2.147 2.4 4.043 4.453 5.292 1.23.754 2.596 1.271 4.008 1.47a7.408 7.408 0 01-1.66-2.81c-.8-1.934-1.163-4.401-1.095-6.518a9.561 9.561 0 01-2.204-1.896zm10.37 10.706c4.8 0 5.692-2.901 5.858-4.028a13.696 13.696 0 00-3.888-2.992c-.566 1.355-1.132 4.05-2.174 4.028-1.23 0-.74-3.137-.475-5.36a46.448 46.448 0 00-4.363-1.714c-.393 2.566 0 5.2 1.117 7.538a4.259 4.259 0 003.925 2.528zm23.49 49.513c-.95 1.873-1.827 3.038-3.714 5.383.582-2.406 1.804-8.962-.18-18.16-1.005-4.674-.13-5.77 1.849-6 .566-.068 1.404-1.568 2.038-2.801v.038l.007-.038c.634 1.233 1.472 2.733 2.046 2.802 1.97.228 2.846 1.325 1.842 6-1.986 9.197-.763 15.753-.181 18.159-1.888-2.345-2.763-3.51-3.707-5.383zM38.431 59.788c.295-3 .265-6.784.385-9.708-1.268.03-3.17.38-4.136.937.128 2.398.724 4.98 2.196 7.834 1.14 2.193 1.434 2.132 1.555.937z" fill="#fff"/><path fill-rule="evenodd" clip-rule="evenodd" d="M43.882 74.05c-.906-.914-1.683-2.24-2.506-3.648-.513-.875-1.042-1.774-1.63-2.642.958-.32 2.023-.792 3.05-1.439 1.064-.67 2.083-1.538 2.898-2.65 1.57-.532 2.816-1.02 3.736-1.454l.317-.152-.958 1.614c-.363.617-1.268 2.178-1.82 2.749-3.208 1.089-3.66 4.355-3.087 7.621zM18.316 52.524a9.548 9.548 0 01-3.782-2.353c.43 5.855 4.046 8.406 8.553 11.589 2.475 1.629 4.921 2.078 7.02 4.195-3.948-7.911-9.02-7.226-11.791-13.431z" fill="#fff"/><path fill-rule="evenodd" clip-rule="evenodd" d="M31.803 65.948c9.504 8.725 8.168 16.141 13.21 18.646.038-2.779-.234-5.573-.876-8.131-1.819-.922-2.996-2.932-4.264-5.11-.8-1.362-1.646-2.801-2.718-4.027.536-.434 1.223-1.234 2.325-2.025-4.34-1.523-7.194-2.955-13.867-9.762-2.506-1.187-3.193-1.187-2.06 0 3.087 2.498 5.835 5.97 8.25 10.409zm6.772-47.413c3.873-1.675 7.526-2.52 11.429-2.535 3.895.015 7.548.86 11.428 2.535-6.265.678-9.065 1.896-11.428 4.09v-.009l-.008.008c-2.355-2.193-5.155-3.41-11.42-4.089zm49.707 14.84c.898 1.668 1.759 3.876 2.317 6.739a61.245 61.245 0 01-4.559 1.888c-5.775 2.124-10.53 2.756-14.267 1.888-3.653-.845-6.348-3.144-8.092-6.898a15.45 15.45 0 01-.513-1.233c.415-.686.929-1.348 1.54-1.988.106 2.612 2.046 7.203 8.832 7.203a7.41 7.41 0 003.359-.83c2.362.16 4.733-.518 6.756-1.751 1.985-1.218 3.646-2.985 4.627-5.018z" fill="#fff"/><path fill-rule="evenodd" clip-rule="evenodd" d="M83.86 27.398a1.501 1.501 0 00.701 1.477c.106.069 1.389.906 2.8 2.985-.754 2.147-2.4 4.043-4.453 5.292a10.464 10.464 0 01-4.008 1.47 7.524 7.524 0 001.668-2.81c.793-1.934 1.155-4.401 1.087-6.518a9.561 9.561 0 002.204-1.896zM73.487 38.104c-4.801 0-5.692-2.901-5.858-4.028a13.699 13.699 0 013.887-2.992c.566 1.355 1.133 4.05 2.182 4.028 1.223 0 .732-3.137.468-5.36a46.495 46.495 0 014.37-1.714 13.03 13.03 0 01-1.124 7.538 4.259 4.259 0 01-3.925 2.528z" fill="#fff"/><path fill-rule="evenodd" clip-rule="evenodd" d="M84.516 49.06c-2.137.579-4.34.86-6.56.823a29.212 29.212 0 01-8.07-1.09c-2.453-.753-5.087-.898-7.397-2.032a63.911 63.911 0 00-5.118-1.576 23.42 23.42 0 00-.226-2.307c-.151-.99-.37-1.987-.65-2.992a.712.712 0 00-.883-.503.73.73 0 00-.52.632v.015a3.156 3.156 0 01-.038.297c-.197 1.234-.763 2.284-1.533 2.992a3.526 3.526 0 01-1.524.86 25.709 25.709 0 00-1.993-.129c-.657.016-1.321.061-2 .13a3.526 3.526 0 01-1.525-.86c-.77-.709-1.337-1.76-1.533-2.993-.007-.091-.022-.19-.038-.297v-.015a.73.73 0 00-.52-.632.712.712 0 00-.883.502 25.602 25.602 0 00-.65 2.993 23.42 23.42 0 00-.226 2.307 64.864 64.864 0 00-5.118 1.576c-2.31 1.134-4.944 1.279-7.398 2.033a29.212 29.212 0 01-8.07 1.089 23.562 23.562 0 01-6.559-.823C11 47.69 9.484 44.933 9 42.786c.045-.41.098-.807.159-1.203a62.65 62.65 0 004.31 1.782c6.046 2.223 11.074 2.87 15.082 1.942 4.099-.952 7.126-3.518 9.066-7.706.241-.533.468-1.08.679-1.644v-.008l.008-.015v-.015l.007-.008v-.015l.008-.008v-.023l.007-.007v-.023l.008-.015v-.023l.007-.008v-.06l.008-.031v-.038l-.008-.015v-.069l-.007-.015v-.023l-.008-.015v-.016l-.007-.015v-.023h-.008v-.015l-.015-.03v-.008l-.008-.008v-.015l-.007-.007v-.008l-.008-.008v-.015h-.007v-.015l-.008-.008h-.007v-.015l-.015-.015c-.846-1.477-2.084-2.87-3.707-4.18-3.533-2.848-8.952-5.079-13.285-6.35-2.763-1.226-4.93-2.528-6.484-3.906 1.14-.724 4.189-2.17 10.228-2.17 1.902-.023 3.797.32 5.578 1.005 3.631 1.538 16.834 3.518 18.117 7.271.453 1.607.898 2.55 1.32 2.954.416-.403.861-1.347 1.314-2.954 1.291-3.753 14.486-5.733 18.117-7.271a15.042 15.042 0 015.578-1.005c6.039 0 9.096 1.446 10.228 2.17-1.555 1.378-3.713 2.68-6.484 3.906-4.333 1.271-9.752 3.502-13.278 6.35-1.63 1.31-2.868 2.703-3.714 4.18l-.015.015v.015h-.007v.008l-.015.03v.008l-.008.008v.007l-.007.008v.007l-.008.008v.008l-.008.015v.015h-.007v.015l-.008.016v.007l-.007.016v.03l-.008.015v.023l-.007.015v.16l.007.03v.039l.008.015v.023l.007.007v.023l.008.008v.007l.008.008v.015l.007.008v.015l.008.008a22.6 22.6 0 00.671 1.644c1.94 4.188 4.967 6.754 9.066 7.706 4.008.928 9.043.281 15.082-1.942a64.346 64.346 0 004.318-1.782c.053.396.106.792.151 1.203-.483 2.148-2 4.904-6.484 6.274zM61.567 59.788c-.294-3-.264-6.784-.377-9.708 1.268.03 3.17.38 4.129.937-.128 2.398-.725 4.98-2.197 7.834-1.132 2.193-1.434 2.132-1.555.937zM56.118 74.05c.906-.914 1.683-2.24 2.506-3.648.514-.875 1.042-1.774 1.63-2.642a14.209 14.209 0 01-3.049-1.439c-1.057-.67-2.083-1.538-2.898-2.65-1.57-.532-2.816-1.02-3.73-1.454l-.316-.152.95 1.614c.37.617 1.269 2.178 1.82 2.749 3.208 1.089 3.669 4.355 3.087 7.621zm25.568-21.526a9.496 9.496 0 003.781-2.353c-.43 5.855-4.046 8.406-8.552 11.589-2.476 1.629-4.922 2.078-7.02 4.195 3.948-7.911 9.02-7.226 11.79-13.431z" fill="#fff"/><path fill-rule="evenodd" clip-rule="evenodd" d="M68.196 65.948c-9.504 8.725-8.168 16.141-13.203 18.646-.045-2.779.227-5.573.868-8.131 1.82-.922 2.997-2.932 4.273-5.11.8-1.362 1.638-2.801 2.71-4.027-.529-.434-1.223-1.234-2.325-2.025 4.34-1.523 7.201-2.955 13.866-9.762 2.507-1.187 3.194-1.187 2.061 0-3.08 2.498-5.835 5.97-8.25 10.409z" fill="#fff"/></svg>